<svg xmlns="http://www.w3.org/2000/svg" width="129" height="58" fill="none" viewBox="0 0 129 58">
  <g clip-path="url(#a)">
    <mask id="b" width="129" height="57" x="1" y="0" maskUnits="userSpaceOnUse" style="mask-type:luminance">
      <path fill="#fff" d="M130 .93H1.985v55.96H130V.93Z"/>
    </mask>
    <g mask="url(#b)">
      <path fill="#F49C24" d="M45.78 4.52a9.245 9.245 0 0 0-.815-1.758 5.859 5.859 0 0 0-1.05-1.324c-.372-.34-.716-.509-1.032-.509-.82 0-1.786.526-2.897 1.579-1.11 1.052-2.33 2.529-3.658 4.429a79.12 79.12 0 0 0-4.181 6.798 160.95 160.95 0 0 0-4.323 8.392.84.84 0 0 0-.054.515c.7 3.212 1.339 6.03 1.913 8.455a83.2 83.2 0 0 0 1.703 6.264c.542 1.68 1.08 2.936 1.612 3.767.531.831 1.11 1.247 1.737 1.248.352-.008.7-.095 1.033-.256.373-.17.731-.4 1.067-.685.33-.282.645-.597.942-.942.144-.167.276-.355.392-.561a.723.723 0 0 0 .069-.213.824.824 0 0 0 .003-.233.741.741 0 0 0-.06-.217.54.54 0 0 0-.117-.166 15.46 15.46 0 0 1-2.03-2.678 38.185 38.185 0 0 1-2.168-4.103 58.197 58.197 0 0 1-1.864-4.583 63.373 63.373 0 0 1-1.348-4.166.82.82 0 0 1 .046-.56 44.505 44.505 0 0 1 3.112-5.388 42.4 42.4 0 0 1 3.766-4.811 32.02 32.02 0 0 1 4.127-3.82 22.772 22.772 0 0 1 4.088-2.529.485.485 0 0 0 .226-.251.799.799 0 0 0 .059-.396 5.821 5.821 0 0 0-.299-1.299Zm8.13 13.467a1.96 1.96 0 0 0-.325.025 1.803 1.803 0 0 1-.326.025c-.746-1.833-1.508-3.038-2.284-3.615-1.158 0-2.401.694-3.73 2.083-.87.918-1.66 1.977-2.353 3.157a25.996 25.996 0 0 0-1.883 3.895 25.54 25.54 0 0 0-1.228 4.257 21.68 21.68 0 0 0-.434 4.225c0 2.31.41 4.21 1.23 5.703.91 1.653 2.072 2.258 3.29 2.224 1.363-.039 2.792-.876 4.007-1.943 1.204-1.05 2.27-2.386 3.151-3.947.885-1.571 1.581-3.334 2.063-5.22.499-1.95.75-4.01.741-6.083 0-3.19-.639-4.786-1.918-4.786Zm-1.285 10.081a21.211 21.211 0 0 1-1.556 4.736c-.634 1.347-1.43 2.527-2.355 3.487a10.563 10.563 0 0 1-2.13 1.684c-.253.15-.537.253-.802.15-.423-.164-.654-.761-.772-1.313a10.462 10.462 0 0 1-.224-2.232 14.05 14.05 0 0 1 .216-2.316c.158-.92.364-1.823.616-2.7.272-.952.587-1.88.942-2.775a26.02 26.02 0 0 1 1.164-2.546 19.358 19.358 0 0 1 2.154-3.105c.832-.984 1.8-1.712 2.843-2.14.178.407.3.856.362 1.325a15.7 15.7 0 0 1 .106 2.083 27.18 27.18 0 0 1-.564 5.662Zm20.424-11.355c-.593-.713-1.347-1.069-2.263-1.068-.58 0-1.263.347-2.047 1.041-.784.695-1.623 1.687-2.516 2.976-.796 1.19-1.388 2.124-1.775 2.8a17.62 17.62 0 0 0-.941 1.885c.207-1.04.461-2.06.76-3.056.338-1.152.712-2.28 1.123-3.385a41.717 41.717 0 0 1 1.27-3.055c.29-.646.62-1.255.986-1.82a.485.485 0 0 0 .08-.273.49.49 0 0 0-.08-.273c-.235-.315-.634-.637-1.199-.969a7.623 7.623 0 0 0-2.247-.892.208.208 0 0 0-.132.012.285.285 0 0 0-.114.093 8.128 8.128 0 0 0-.62 1.061c-.243.482-.467.98-.672 1.495-.73 1.827-1.207 3.823-1.75 5.767-.587 2.092-1.18 4.18-1.768 6.273-1.172 4.18-2.328 8.376-3.343 12.637a120.736 120.736 0 0 0-1.104 5.058 76.798 76.798 0 0 0-.707 4.2c-.1.81-.171 1.627-.211 2.447 0 .075-.008.148-.012.226-.01.235-.018.47-.021.703-.015 1.2.069 2.448.383 3.571a5.608 5.608 0 0 0 .455 1.163c.263.472.563.899.895 1.274.59.711.689-.217.74-.454.212-.935.381-1.892.538-2.849.198-1.21.356-2.44.582-3.64.47-2.495.942-4.846 1.413-7.053.47-2.207.93-4.2 1.375-5.982.447-1.785.84-3.22 1.178-4.303.24-.815.464-1.503.67-2.062.234-.628.5-1.233.796-1.808a73.94 73.94 0 0 1 1.249-2.341c.506-.917 1.195-2.122 2.064-3.616a16.627 16.627 0 0 1 2.19-3.132 17.355 17.355 0 0 1 1.933-1.785.224.224 0 0 1 .156-.05.24.24 0 0 1 .152.075.413.413 0 0 1 .099.177c.02.072.026.15.016.225a49.96 49.96 0 0 1-1.164 5.566 46.533 46.533 0 0 1-1.992 5.881 31.196 31.196 0 0 1-2.48 4.812 14.663 14.663 0 0 1-2.508 3.05.35.35 0 0 0-.086.112.556.556 0 0 0-.044.318.48.48 0 0 0 .05.15c.142.234.313.427.506.571.348.27.74.408 1.138.402a3.408 3.408 0 0 0 1.557-.458 9.423 9.423 0 0 0 1.775-1.247 14.943 14.943 0 0 0 1.738-1.808 14.217 14.217 0 0 0 1.449-2.14c1.09-1.948 1.935-4.144 2.498-6.493a30.78 30.78 0 0 0 .87-7.26 4.704 4.704 0 0 0-.22-1.518 3.59 3.59 0 0 0-.668-1.23Zm21.687 2.867c.09-.262.131-.551.121-.842a1.68 1.68 0 0 0-.254-.705c-.293-.494-.675-.869-1.105-1.086-.307-.149-.661-.26-.984-.13-.346.14-.611.529-.839.923-1.252 2.17-1.918 4.962-2.877 7.399-.522 1.324-1.132 2.544-1.969 3.505-.488.56-1.126 1.093-1.779 1.03-.63-.086-1.224-.462-1.687-1.072-.59-.744-1.023-1.757-1.332-2.779-.077-.256-.548-1.488-.383-1.721a.155.155 0 0 0 .026-.047.21.21 0 0 0 .011-.056c1-2.354 1.657-4.02 1.972-4.998a1.041 1.041 0 0 0 .018-.595 10.855 10.855 0 0 0-1.157-2.788c-.477-.8-.98-1.356-1.508-1.67a.328.328 0 0 0-.278-.025.465.465 0 0 0-.235.21c-.254.422-.65 1.231-1.186 2.428-.761 1.698-1.6 4.04-2.517 7.026a80.575 80.575 0 0 0-1.123 3.972 60.709 60.709 0 0 0-.847 3.793 62.686 62.686 0 0 0-.543 3.285 18.59 18.59 0 0 0-.2 2.446c0 .753 1.119 3.849 1.65 3.868a.43.43 0 0 0 .144-.02c.65-.214.926-1.465 1.164-2.21.304-.957.568-1.934.82-2.92.494-1.923.953-3.899 1.553-5.744.165-.503.332-.996.499-1.48-.05.149.508 1.03.589 1.168.505.824 1.118 1.503 1.806 2 .533.393 1.124.605 1.726.619.601.013 1.197-.173 1.738-.544.269-.176.53-.375.783-.595.22-.19.462-.297.626-.604-.412 1.977-.689 4.084-.365 6.1.134.829.379 1.646.804 2.25.605.858 1.521 1.19 2.376 1.06.855-.129 1.655-.657 2.375-1.312.317-.297.665-.84.46-1.291-.152-.33-.5-.329-.761-.194-.261.136-.506.37-.784.383-.404.018-.754-.46-.879-1s-.075-1.13-.006-1.689c.67-5.443 2.917-10.203 4.337-15.348Zm14.082-.91a6.225 6.225 0 0 0-.083-.582 5.765 5.765 0 0 0-.128-.56 5.773 5.773 0 0 0-.635-1.489 4.397 4.397 0 0 0-.291-.41 3.356 3.356 0 0 0-.686-.655 2.841 2.841 0 0 0-.391-.232 2.514 2.514 0 0 0-.381-.149l-.067-.02a1.61 1.61 0 0 0-.582-.03c-.134.013-.27.034-.404.062a4.394 4.394 0 0 0-.813.255c-.278.118-.55.26-.815.428a10.633 10.633 0 0 0-2.355 2.083 18.824 18.824 0 0 0-2.136 3.106 26.787 26.787 0 0 0-2.9 7.976 22.443 22.443 0 0 0-.418 4.248c0 2.036.465 3.776 1.394 5.22.716 1.087 1.631 1.874 2.645 2.274 1.787.716 3.543-.843 4.922-2.275 1.329-1.403 2.508-3.067 3.5-4.942a.239.239 0 0 0 .03-.118.24.24 0 0 0-.03-.117c-.131-.199-.281-.41-.451-.634-.024-.033-.055-.051-.089-.051-.033 0-.065.018-.089.051-.366.545-.778 1.14-1.238 1.785a17.323 17.323 0 0 1-1.593 1.934c-.559.587-1.16 1.09-1.793 1.503-.599.4-1.254.609-1.917.615-.301.017-.597-.118-.833-.381a2.683 2.683 0 0 1-.506-.994 7.281 7.281 0 0 1-.254-1.323 13.598 13.598 0 0 1-.072-1.374c0-.239 0-.468.018-.688.018-.22.018-.434.018-.637a29.09 29.09 0 0 0 4.056-2.648c1.078-.834 2.07-1.872 2.948-3.084.806-1.134 1.44-2.485 1.865-3.973a18.921 18.921 0 0 0 .548-2.678 7.46 7.46 0 0 0 .006-1.496Zm-4.32 6.928a18.046 18.046 0 0 1-4.817 5.016c.278-1.52.68-2.988 1.196-4.379a21.296 21.296 0 0 1 1.684-3.57 10.249 10.249 0 0 1 1.973-2.444c.614-.564 1.304-.946 2.027-1.12a12.712 12.712 0 0 1-2.063 6.497Zm22.523-8.706a4.59 4.59 0 0 0-.846-.509 6.77 6.77 0 0 0-1.033-.382 3.89 3.89 0 0 0-.882-.15.232.232 0 0 0-.123.031.318.318 0 0 0-.105.096 10.325 10.325 0 0 0-.972 1.627c-1.019 2.048-1.529 4.516-2.341 6.724a40.037 40.037 0 0 1-2.4 5.33c-.952 1.75-1.863 3.551-2.881 5.232-.332.548-.711 1.308-1.195 1.605a.188.188 0 0 1-.111.038.19.19 0 0 1-.111-.038.442.442 0 0 1-.106-.188c-.175-.5-.117-1.171-.079-1.708.047-.612.13-1.217.249-1.81.223-1.169.54-2.297.811-3.444.169-.714.318-1.256.435-1.636 1.086-3.633 2.07-6.416 2.951-8.35.709-1.554 1.203-2.596 1.481-3.124a.562.562 0 0 0-.05-.595 2.373 2.373 0 0 0-.489-.447 5.974 5.974 0 0 0-.869-.483 3.766 3.766 0 0 0-.887-.281h-.009a1.23 1.23 0 0 0-.709.086c-.23.1-.441.266-.621.49a14.48 14.48 0 0 0-1.613 2.582 38.05 38.05 0 0 0-1.864 4.43 58.206 58.206 0 0 0-1.47 4.829c-.38 1.432-.7 2.894-.959 4.378a17.915 17.915 0 0 0-.236 1.986 41.053 41.053 0 0 0-.054 2.283.64.64 0 0 0 .009.116c.094.58.283 1.122.551 1.583.279.48.609.895.979 1.23.68.62 1.638 1.248 2.467.997 1.058-.318 1.756-1.945 2.367-3.068.385-.71.778-1.438 1.176-2.182.399-.745.767-1.39 1.105-1.934.339-.542.556-.813.652-.813a7.992 7.992 0 0 0-.181 1.833c.014.706.093 1.406.235 2.083.169.783.497 1.479.945 2.001l.026.031c.777.932 1.769 1.463 2.742 1.838.212.088.431.138.651.149a.102.102 0 0 0 .072-.052c.048-.069.073-.12.073-.15a1.84 1.84 0 0 0-.128-.61 11.997 11.997 0 0 1-.271-.893 13.039 13.039 0 0 1-.271-1.325 11.739 11.739 0 0 1-.126-1.858c.006-1.384.165-2.758.469-4.073a47.53 47.53 0 0 1 1.159-4.2c.459-1.41.953-2.844 1.481-4.303a71.49 71.49 0 0 0 1.369-4.159.592.592 0 0 0 .016-.268.475.475 0 0 0-.099-.23 2.36 2.36 0 0 0-.38-.345Zm2.97-12.094a2.796 2.796 0 0 0-.211-.578.367.367 0 0 0-.123-.142.23.23 0 0 0-.155-.037.262.262 0 0 0-.15.076.428.428 0 0 0-.101.17c-.118.335-.261.744-.285.804-.155.383-.323.756-.505 1.115-.48.962-1.13 1.894-1.904 2.366-1.111.676-2.182 0-2.994-1.126-.641-.882-1.129-2.41-1.466-4.584-.007-.043-2.518 1.437-2.499 1.58a13.03 13.03 0 0 0 .814 3.284c.131.313.272.618.423.913.243.472.524.905.836 1.288.174.213.36.407.556.578.739.644 1.596.973 2.465.947.781-.02 1.547-.305 2.233-.831 1.126-.897 2.032-2.253 2.597-3.89.11-.311.205-.634.284-.963.046-.198.237-.774.185-.97ZM30.678 6.369a12.727 12.727 0 0 0-2.134-2.884c-.69-.695-1.476-1.177-2.308-1.415a.357.357 0 0 0-.206.005.45.45 0 0 0-.187.122.683.683 0 0 0-.136.218.913.913 0 0 0-.061.277c-.546 7.908-1.63 15.644-3.735 23.042-1.62 5.685-4.172 11.944-9.345 11.218-4.414-.615-7.724-5.15-7.787-11.856-.014-1.558.203-3.111.483-4.613.134-.718-.529-1.181-.864-.607-.264.455-.511.929-.74 1.42C1.51 25.865 1.47 31.95 3.31 36.776c2.751 7.204 9.64 10.803 14.76 7.09 6.158-4.464 7.09-13.72 8.832-22.053 1.011-4.835 2.051-10.273 3.816-14.683a.927.927 0 0 0-.04-.761Z"/>
    </g>
  </g>
  <defs>
    <clipPath id="a">
      <path fill="#fff" d="M.985.5h128.014v57H.985z"/>
    </clipPath>
  </defs>
</svg>
