<svg xmlns="http://www.w3.org/2000/svg" width="115" height="129" fill="none" viewBox="0 0 115 129">
  <g clip-path="url(#a)">
    <path fill="#fff" d="M0 0h115v114H0z"/>
    <path fill="#000" d="M40.005 64.465h-14.8v-5.6l9.6-16.8h8l-9.6 16.8h6.8v-6h7.2v6h2.8v5.6h-2.8v5.6h-7.2v-5.6Zm28.416-22.4c3.013 0 5.293.786 6.84 2.36 1.573 1.546 2.36 3.826 2.36 6.84v9.6c0 3.013-.787 5.306-2.36 6.88-1.547 1.546-3.827 2.32-6.84 2.32h-15.6v-28h15.6Zm2 9.2c0-2.4-1.2-3.6-3.6-3.6h-6.8v16.8h6.8c2.4 0 3.6-1.2 3.6-3.6v-9.6Z"/>
    <path fill="#12E834" fill-rule="evenodd" d="M115 0H0v114h115V0Zm-4.631 3.826H3.859v104.818h106.51V3.826Z" clip-rule="evenodd"/>
    <path fill="#fff" d="M20.427 117.3c.828 0 1.455.216 1.88.649.433.425.65 1.052.65 1.881v2.64c0 .829-.217 1.459-.65 1.892-.425.425-1.052.638-1.88.638h-4.29v-7.7h4.29Zm.55 2.53c0-.66-.33-.99-.99-.99h-1.87v4.62h1.87c.66 0 .99-.33.99-.99v-2.64Zm9.182 5.17h-6.105v-7.7h6.105v1.54h-4.125v1.485h3.245v1.54h-3.245v1.595h4.125V125Zm4.122-2.31 1.87-5.39h2.145l-2.915 7.7h-2.2l-2.915-7.7h2.145l1.87 5.39Zm10.67 2.31h-6.105v-7.7h6.105v1.54h-4.126v1.485h3.245v1.54h-3.245v1.595h4.125V125Zm2.857-1.54h4.015V125h-5.995v-7.7h1.98v6.16Zm9.737-4.07c0-.44-.22-.66-.66-.66h-1.87c-.44 0-.66.22-.66.66v3.52c0 .44.22.66.66.66h1.87c.44 0 .66-.22.66-.66v-3.52Zm1.98 3.52c0 .77-.175 1.331-.527 1.683-.345.345-.902.517-1.672.517h-2.75c-.77 0-1.331-.172-1.684-.517-.344-.352-.517-.913-.517-1.683v-3.52c0-.77.173-1.327.517-1.672.352-.352.913-.528 1.683-.528h2.75c.77 0 1.328.176 1.672.528.352.345.529.902.529 1.672v3.52Zm1.106-5.61h4.62c.77 0 1.327.176 1.672.528.352.345.528.902.528 1.672v1.1c0 .77-.176 1.331-.528 1.683-.345.345-.902.517-1.672.517h-2.64v2.2h-1.98v-7.7Zm4.84 2.2c0-.44-.22-.66-.66-.66h-2.2v2.42h2.2c.44 0 .66-.22.66-.66v-1.1Zm9.57 1.21-1.54 2.75h-1.54l-1.54-2.75V125h-1.98v-7.7h2.09l2.2 4.07 2.2-4.07h2.09v7.7h-1.98v-4.29ZM84.45 125h-6.105v-7.7h6.105v1.54h-4.125v1.485h3.245v1.54h-3.245v1.595h4.125V125Zm7.587 0h-2.09l-2.64-4.62V125h-1.98v-7.7h2.09l2.64 4.62v-4.62h1.98v7.7Zm5.065 0h-1.98v-6.16h-2.31v-1.54h6.6v1.54h-2.31V125Z"/>
  </g>
  <defs>
    <clipPath id="a">
      <path fill="#fff" d="M0 0h115v129H0z"/>
    </clipPath>
  </defs>
</svg>
