<svg xmlns="http://www.w3.org/2000/svg" width="250" height="86" fill="none" viewBox="0 0 250 86">
  <g clip-path="url(#a)">
    <g clip-path="url(#b)">
      <path fill="#5639FF" d="M37.959.005v19.257h47.508L99.414.005H37.959Z"/>
      <path fill="#fff" d="M57.824 21.324c0-11.187-8.91-20.284-19.865-20.284H2.086v83.799h39.46c.34 0 .68-.007 1.013-.014 12.253 0 22.231-10.224 22.231-22.785 0-9.975-6.501-18.945-15.813-21.821l-2.102-.652 1.845-1.218c5.704-3.762 9.11-10.132 9.11-17.04l-.006.015ZM38.125 26.75c0 3.556-2.838 6.454-6.32 6.454h-10.16V20.297h10.158c3.483 0 6.321 2.897 6.321 6.454Zm4.136 31.683c0 3.918-3.123 7.127-6.967 7.156H21.646V51.278h13.655c3.837.029 6.96 3.238 6.96 7.156Z"/>
      <path fill="#5639FF" fill-rule="evenodd" d="M1.07.002h36.89c11.511 0 20.872 9.553 20.88 21.306l.008.002c0 7.262-3.584 13.958-9.575 17.91l-.006.004.005.002c9.742 3.01 16.535 12.384 16.535 22.814 0 13.128-10.424 23.817-23.237 23.823a48.06 48.06 0 0 1-1.024.014H1.07V.002Zm55.745 21.324-.007-.002c0-10.614-8.454-19.246-18.849-19.246H3.103v81.723h38.443c.328 0 .658-.006.992-.014h.022c11.689 0 21.215-9.755 21.215-21.747 0-9.52-6.21-18.084-15.09-20.827l-4.2-1.302 3.685-2.434c5.41-3.569 8.64-9.604 8.646-16.151ZM20.63 19.259h11.175c4.044 0 7.337 3.362 7.337 7.492s-3.293 7.492-7.338 7.492H20.63V19.26Zm2.033 2.076v10.832h9.142c2.921 0 5.304-2.433 5.304-5.416 0-2.983-2.383-5.416-5.305-5.416h-9.14ZM20.63 50.24h14.68c4.395.032 7.969 3.705 7.969 8.193 0 4.49-3.575 8.161-7.976 8.194H20.63V50.24Zm2.033 2.076v12.235h12.628c3.285-.026 5.954-2.772 5.954-6.118 0-3.346-2.67-6.091-5.947-6.117H22.663Z" clip-rule="evenodd"/>
      <path fill="#5639FF" d="m42.67 85.866 21.412.014 26.242-60.355 6.57-18.76 1.381-6.76L83.864 10.25l-11.733 8.027-.743 1.715L42.67 85.866Z"/>
      <path fill="#fff" d="M125.183 67.665h-23.299l1.339-1.693c4.899-6.17 9.79-12.349 14.689-18.52.43-.56.86-1.12 1.29-1.672 3.858-4.867 5.988-11.002 5.988-17.265 0-15.148-12.066-27.468-26.9-27.468-14.835 0-26.901 12.32-26.901 27.468 0 7.354 2.907 14.403 8.021 19.56 3.33-7.665 6.668-15.33 9.998-22.997.056-.134.125-.297.202-.46 1.623-3.457 5.023-5.654 8.694-5.654 5.301 0 9.609 4.4 9.609 9.813a9.96 9.96 0 0 1-2.13 6.157A35966.49 35966.49 0 0 1 90.04 54.743c-.27.361-.548.722-.819 1.09-7.667 9.671-15.341 19.342-23.008 29.013h58.97v-17.18Z"/>
      <path fill="#5639FF" fill-rule="evenodd" d="M70.373 28.515C70.373 12.795 82.894.009 98.29.009s27.917 12.785 27.917 28.506c0 6.5-2.209 12.864-6.211 17.914-.427.55-.854 1.105-1.284 1.664l-.005.007-.005.006c-2.447 3.083-4.892 6.167-7.338 9.252l-.006.007c-2.448 3.087-4.896 6.175-7.345 9.26l-.001.002H126.2v19.257H64.082l1.341-1.691 11.468-14.46.036-.046L88.42 55.196c.173-.236.353-.474.528-.705l.285-.379.009-.012.01-.012c5.25-6.6 10.493-13.2 15.737-19.801l.004-.006a8.91 8.91 0 0 0 1.904-5.504c0-4.84-3.853-8.775-8.593-8.775-3.272 0-6.32 1.96-7.777 5.064-.067.142-.13.289-.181.415l-.004.01-.004.008c-1.665 3.834-3.332 7.667-5 11.5-1.666 3.832-3.333 7.665-4.998 11.498l-.597 1.373-1.047-1.056c-5.306-5.351-8.323-12.666-8.323-20.3ZM98.29 2.085c-14.273 0-25.884 11.856-25.884 26.43 0 6.566 2.41 12.882 6.69 17.724l4.385-10.083a30729.244 30729.244 0 0 0 5.212-11.986c1.79-3.812 5.543-6.244 9.611-6.244 5.862 0 10.626 4.865 10.626 10.85 0 2.47-.835 4.89-2.356 6.81l-.001.001c-5.242 6.6-10.485 13.199-15.734 19.798l-.296.392c-.171.227-.339.449-.508.68l-.012.015-.011.015-11.464 14.455-.04.051-10.164 12.815h55.823V68.703h-24.41l2.677-3.385c2.449-3.085 4.896-6.171 7.344-9.259l.006-.008c2.444-3.082 4.888-6.165 7.333-9.246.429-.557.859-1.117 1.29-1.67l.006-.008c3.711-4.682 5.761-10.587 5.761-16.612 0-14.574-11.611-26.43-25.884-26.43Z" clip-rule="evenodd"/>
      <path fill="#5639FF" d="M215.203 39.867V30.79c-.021-.584-.11-1.202-.318-1.741-.562-1.483-1.761-2.224-3.236-2.505a7.513 7.513 0 0 0-3.201.078c-1.914.461-3.18 1.877-3.18 4.09h1.948c.089-.843.726-1.888 1.617-2.18.847-.28 1.695-.28 2.53-.067.804.202 1.464.696 1.651 1.573.143.662.099 1.404.165 2.134h-2.937c-1.035-.011-2.058.068-3.036.416-.892.314-1.641.831-2.102 1.674-.507.898-.606 1.876-.44 2.887.154.91.583 1.651 1.309 2.201.836.618 1.793.843 2.828.854 1.275 0 2.431-.36 3.475-1.112.32-.224.606-.494.958-.775l.748 1.573h1.233l-.012-.023Zm-2.068-3.392c-.869.898-1.903 1.561-3.158 1.752-.836.135-1.683.113-2.464-.37-.88-.551-1.045-1.573-.781-2.45.23-.786.847-1.157 1.595-1.348.968-.258 4.797-.168 4.797-.168v2.572l.011.012Zm-13.884 3.381h2.001V26.701H190.79v13.155h2.068V28.555h6.404v11.301h-.011Zm-14.666 0h1.991V26.701h-10.463v13.155h2.058V28.555h6.402v11.301h.012Zm-17.526 4.09 6.391-16.1v-1.145h-1.837l-3.795 10.223-4.038-10.212h-1.882v1.146l4.874 12.02-1.386 3.09v.988h1.673v-.01Zm-7.427-8.168a79.323 79.323 0 0 0 0-4.853c-.021-.921-.242-1.82-.759-2.606-.703-1.056-1.694-1.652-2.927-1.831-1.573-.225-2.992.157-4.246 1.146-.286.224-.551.482-.837.752l-.913-1.674h-1.022v17.244h2.024v-5.482s.054-.022.088-.033c.065.067.132.134.208.19.452.326.869.697 1.353.978.98.562 2.058.663 3.147.55.913-.09 1.75-.427 2.443-1.056.98-.876 1.397-2.044 1.441-3.325Zm-2.102.023c-.098 1.438-1.275 2.538-2.903 2.482-1.244-.045-2.19-.685-3.103-1.449-.44-.37-.583-.786-.572-1.37.044-1.63.01-5.033.01-5.1.848-.922 1.772-1.697 3.015-1.966.715-.158 1.441-.135 2.102.213.913.483 1.441 1.28 1.474 2.314.055 1.629.076 3.258-.023 4.876Zm-16.942-11.875h8.483v-1.932h-10.717v17.873h2.234v-15.94Zm110.34 39.644V50.417h-2.058l-6.755 9.863v-9.863h-2.058V63.57h2.058l6.755-9.864v9.864h2.058Zm-1.607-17.153c.098-.394.088-.82.121-1.247h-1.771c-.023.595-.088 1.168-.507 1.617-.429.46-.978.584-1.561.618-.53.023-1.046-.056-1.508-.37-.661-.439-.749-1.135-.749-1.854h-1.793c-.033.977.177 1.853.804 2.584.593.696 1.386 1.01 2.255 1.157.869.146 1.727.1 2.563-.191 1.1-.382 1.87-1.135 2.156-2.314h-.01ZM233.907 63.57h2.057V50.416h-2.057l-6.755 9.863v-9.863h-2.057V63.57h2.057l6.755-9.864v9.864Zm-15.161 0h2.057V50.416h-2.057v5.65h-6.348v-5.65h-2.057V63.57h2.057v-5.65h6.348v5.65Zm-13.61 0h1.233l-.011-9.077c0-.584-.099-1.202-.297-1.742-.572-1.483-1.76-2.224-3.235-2.505a7.702 7.702 0 0 0-3.202.068c-1.914.46-3.179 1.876-3.179 4.089h1.948c.088-.843.726-1.888 1.616-2.18.848-.28 1.695-.28 2.531-.067.803.202 1.464.697 1.651 1.573.143.663.099 1.404.164 2.134h-2.937c-1.035-.01-2.057.068-3.037.416-.891.314-1.639.82-2.101 1.674-.506.898-.605 1.865-.441 2.876.143.91.585 1.651 1.31 2.202.836.618 1.793.853 2.817.853 1.286 0 2.431-.36 3.476-1.112.32-.225.606-.494.957-.775l.749 1.573h-.012Zm-.825-3.393c-.869.899-1.904 1.562-3.158 1.753-.835.134-1.683.112-2.463-.371-.892-.55-1.046-1.573-.781-2.45.23-.785.858-1.156 1.595-1.347.968-.259 4.797-.169 4.797-.169v2.573l.01.011Zm-13.883 3.382h1.99V50.404h-10.462v13.154h2.057v-11.3h6.402v11.3h.013Zm-14.557 0h1.991V50.416h-1.902l-4.545 6.336-4.51-6.336h-1.948V63.56h1.981v-9.82l4.015 5.572h.925l4.004-5.482v9.728h-.011Zm-14.512-7.965c0-.764-.033-1.528-.263-2.258-.33-1.045-.957-1.865-1.882-2.438-.77-.472-1.617-.685-2.508-.764-1.221-.101-2.432 0-3.543.54-1.584.786-2.453 2.122-2.519 3.931-.056 1.37-.044 2.752-.023 4.134 0 .562.078 1.135.188 1.685.187.888.649 1.63 1.331 2.213.726.63 1.562.989 2.508 1.135 1.309.202 2.608.18 3.862-.326 1.034-.416 1.837-1.112 2.332-2.146.374-.763.507-1.584.517-2.426v-3.28Zm-2.013 1.381s-.044 1.618-.099 2.427c-.076 1.01-.583 1.797-1.496 2.202-1.397.607-2.783.561-4.06-.36-.638-.471-.979-1.168-1.001-1.954a76.686 76.686 0 0 1 0-4.55c.033-1.034.528-1.843 1.441-2.303 1.199-.607 2.465-.618 3.675-.034.814.393 1.309 1.112 1.42 2.022.099.843.076 1.708.12 2.562v-.012Zm-12.741 6.572h1.948v-1.134l-4.258-5.539 3.961-5.336v-1.146h-1.661l-4.126 5.617h-2.19v-5.617h-1.925v13.155h1.914v-5.594h2.19l4.147 5.594Z"/>
    </g>
  </g>
  <defs>
    <clipPath id="a">
      <path fill="#fff" d="M0 0h250v86H0z"/>
    </clipPath>
    <clipPath id="b">
      <path fill="#fff" d="M0 0h250v86H0z"/>
    </clipPath>
  </defs>
</svg>
