<svg xmlns="http://www.w3.org/2000/svg" width="248" height="65" fill="none" viewBox="0 0 248 65">
  <path fill="#EF3D24" stroke="#FDF5BB" stroke-width="2.219" d="M25.276 48c11.088 0 20.077-8.923 20.077-19.93 0-11.008-8.989-19.93-20.077-19.93C14.188 8.14 5.2 17.061 5.2 28.07 5.2 39.077 14.188 48 25.276 48Z"/>
  <path fill="#fff" stroke="#FDF5BB" stroke-width="1.405" d="M25.276 40.691c7.022 0 12.715-5.65 12.715-12.621s-5.693-12.622-12.715-12.622-12.714 5.65-12.714 12.622c0 6.97 5.692 12.621 12.714 12.621Z"/>
  <path fill="#EF3D24" stroke="#FDF5BB" stroke-width=".524" d="M28.206 28.078c2.554 0 4.625-2.157 4.625-4.818 0-2.66-2.071-4.818-4.626-4.818-2.554 0-4.624 2.157-4.624 4.818 0 2.661 2.07 4.818 4.625 4.818Z"/>
  <path fill="#EF3D24" d="M130.061 35.224c-2.336-.145-3.758-.36-5.162-.777-2.512-.748-4.168-1.97-4.964-3.665-.315-.67-.451-1.181-.521-1.953a5.867 5.867 0 0 1 .522-3.062c1.177-2.49 4.157-3.938 8.934-4.344 1.115-.095 3.669-.108 4.793-.026 4.349.319 7.13 1.478 8.358 3.484.18.295.442.857.412.887-.023.025-4.616.961-4.629.944a2.675 2.675 0 0 1-.099-.19c-.128-.263-.509-.668-.834-.889-1.113-.755-3.119-1.084-6.165-1.011-3.716.088-5.688.713-6.536 2.073-.287.46-.406.924-.407 1.58-.001.911.239 1.52.835 2.108.757.75 1.927 1.18 3.9 1.436.851.11 3.755.159 4.752.079 2.045-.163 3.348-.586 4.049-1.314.169-.176.359-.43.422-.565.063-.135.128-.245.145-.245.047 0 4.502.891 4.516.903.036.03-.277.671-.509 1.043-1.201 1.92-3.725 3.034-7.717 3.408-.779.073-3.459.136-4.095.096Zm-76.422-.263c-.019-.019-.034-3.032-.034-6.695v-6.661H73.26v3.101l-7.755.013-7.754.014v1.964l6.427.029c6.301.027 6.436.03 6.873.136 1.843.447 2.928 1.476 3.23 3.063.113.589.076 1.625-.077 2.175-.341 1.23-1.254 2.142-2.557 2.556-.544.172-.843.228-1.538.287-.668.057-16.416.074-16.47.018Zm15.902-3.107c.44-.185.641-.494.641-.985 0-.504-.223-.862-.642-1.03-.212-.085-.605-.091-6.009-.091H57.75l-.014 1.082c-.01.83.001 1.092.05 1.125.035.023 2.631.036 5.77.029l5.708-.013.277-.117Zm7.54-3.554v-6.695h7.545c4.95 0 7.712.018 8.028.054 2.208.25 3.787 1.2 4.549 2.736.726 1.466.673 3.51-.129 4.893-.612 1.058-1.687 1.831-3.082 2.218-1.1.305-1.016.301-7.008.322-3.825.013-5.526.036-5.571.074-.05.043-.064.395-.064 1.575v1.519H77.08V28.3Zm14.961.11c.615-.193.985-.485 1.173-.925.095-.221.116-.36.117-.762 0-.571-.103-.876-.41-1.206-.228-.247-.457-.372-.944-.515-.377-.11-.432-.112-5.405-.128-3.53-.012-5.054 0-5.124.039-.097.054-.1.104-.1 1.776 0 1.293.015 1.735.06 1.783.049.05 1.181.06 5.2.047 4.773-.015 5.158-.023 5.433-.109Zm11.442 6.544c0-.023.736-.878 1.636-1.9.901-1.022 1.638-1.896 1.638-1.94.001-.072-2.677-2.874-7.766-8.126l-1.34-1.383h2.568l2.567-.001 3.228 3.296c1.775 1.813 3.27 3.303 3.321 3.312.07.012.849-.849 2.987-3.296l2.893-3.312h5.014l-.178.194c-.097.107-2.672 3.056-5.722 6.553-3.05 3.498-5.611 6.424-5.69 6.502l-.145.142h-2.505c-1.379 0-2.506-.018-2.506-.041Zm41.243-6.654v-6.695h4.268v2.402c0 2.322.003 2.404.096 2.456.104.058 13.528.08 13.672.022.07-.028.079-.293.079-2.456v-2.424h4.268v13.392l-2.122-.014-2.121-.013-.013-2.557c-.01-1.966-.027-2.566-.075-2.597-.096-.064-13.573-.053-13.688.011-.093.052-.096.136-.096 2.611v2.558h-4.268V28.3Zm25.907 0v-6.695h4.267l.013 4.587c.012 4.162.02 4.59.092 4.604.044.01 3.032-2.055 6.639-4.588l6.559-4.603h4.366v13.391h-4.268v-4.57c0-4.027-.009-4.577-.075-4.634-.064-.055-.166-.003-.633.322-.307.213-3.28 2.298-6.608 4.634l-6.05 4.248h-4.302V28.3Zm25.295 6.661c-.018-.019-.033-3.032-.033-6.695v-6.661h4.268v2.76c0 2.407.009 2.767.075 2.824.064.055.241-.022 1.08-.467l5.314-2.825 4.309-2.292 3.408.003 3.408.004-5.931 3.086c-4.815 2.505-5.931 3.104-5.931 3.185 0 .08 1.244.808 6.091 3.568 3.349 1.907 6.091 3.485 6.092 3.506.001.021-1.63.039-3.624.039-3.251 0-3.642-.009-3.784-.085-.088-.046-2.441-1.384-5.229-2.972-2.788-1.59-5.103-2.89-5.144-2.89-.04 0-.087.038-.104.083-.017.045-.03 1.382-.03 2.973v2.89h-2.101c-1.156 0-2.116-.015-2.134-.034Zm22.657-.061c.036-.053 2.377-3.066 5.202-6.695l5.137-6.598 2.283.002h2.283l5.157 6.63c2.837 3.645 5.167 6.657 5.178 6.693.017.051-.491.062-2.501.051l-2.522-.013-.873-1.163-.872-1.164-5.903-.012c-3.247-.007-5.927.005-5.957.026-.03.02-.418.527-.862 1.124-.444.597-.843 1.115-.886 1.15-.06.05-.638.065-2.503.065-2.356 0-2.424-.003-2.361-.096Zm16.06-5.39c.009-.048-.73-1.087-1.691-2.38-1.403-1.885-1.728-2.294-1.825-2.294-.097 0-.424.408-1.82 2.274-.935 1.25-1.701 2.311-1.701 2.357 0 .045.015.098.034.117.018.02 1.598.03 3.511.022 3.154-.012 3.478-.021 3.492-.097Z"/>
</svg>
