<svg xmlns="http://www.w3.org/2000/svg" width="226" height="22" fill="none" viewBox="0 0 226 22">
  <g clip-path="url(#a)">
    <path fill="#fff" d="M16.864 15.011c-1.293 1.057-3.017 1.48-4.526 1.48-3.663.212-6.25-2.537-6.25-5.92 0-4.017 2.587-6.343 5.82-6.343 1.94 0 3.017.635 4.31 1.27l2.155-3.384C17.08.846 14.709 0 12.123 0 5.01 0 1.347 4.651 1.347 10.571c0 6.343 4.31 10.36 10.776 10.36 2.802 0 5.603-1.057 6.681-2.326l-1.94-3.594ZM36.477 0C30.01 0 25.485 4.651 25.485 10.571c0 6.343 4.742 10.36 10.992 10.36 6.25 0 10.991-4.229 10.991-10.36C47.468 4.017 42.727 0 36.477 0Zm0 16.703c-3.233 0-6.035-2.749-6.035-6.132 0-3.805 2.587-6.343 6.035-6.343s6.034 2.326 6.034 6.132c-.215 3.594-2.155 6.343-6.034 6.343Zm30.383-6.555c1.94-1.268 2.587-2.96 2.587-4.44C69.447 2.115 66.86 0 62.98 0c-3.017 0-5.603 1.48-6.896 3.383l2.586 2.96c1.078-1.48 2.37-2.115 3.664-2.115 1.293 0 2.155.635 2.155 1.903 0 1.269-1.078 1.903-2.586 1.903H60.18v4.44h1.94c2.154 0 3.232.846 3.232 2.114 0 1.692-1.724 2.115-3.017 2.115-1.724 0-3.449-1.058-4.526-2.538l-2.586 3.172c1.077 1.691 3.233 3.594 7.327 3.594 3.664 0 7.328-2.326 7.328-5.92.215-2.326-.647-4.228-3.017-4.863Zm30.178 6.132V.423H83.676l-.215 4.017c-.216 6.554-2.155 10.783-3.017 11.84h-2.155v4.228H99.84V16.28h-2.802Zm-4.741 0h-6.681c.647-.846 1.94-4.652 2.155-8.246l.216-3.383h4.095V16.28h.215ZM119.018.423h-4.309l-8.621 20.297h4.741l1.724-4.229h8.406l1.724 4.229h4.957L119.018.423Zm-4.526 11.628 2.372-5.708 2.37 5.708h-4.742ZM132.165.423v4.228h6.25v15.857h4.74V4.651h6.249V.423h-17.239Zm30.602 12.051h6.681V8.246h-6.681V4.65h7.542V.423h-12.283V20.72h12.5v-4.23h-7.759v-4.017ZM183.674.423l-.216 4.017c-.861 11.206-2.587 11.84-4.311 11.628v4.652c4.741.845 7.543-1.48 8.621-12.051l.431-3.806h4.526V20.72h4.741V.423h-13.792Zm38.578 0L213.2 13.108V.423h-4.742V20.72h4.096l9.052-12.686V20.72h4.741V.423h-4.095Z"/>
  </g>
  <defs>
    <clipPath id="a">
      <path fill="#fff" d="M.346 0h225v22h-225z"/>
    </clipPath>
  </defs>
</svg>
