<svg xmlns="http://www.w3.org/2000/svg" width="250" height="55" fill="none" viewBox="0 0 250 55">
  <g clip-path="url(#a)">
    <path fill="url(#b)" fill-rule="evenodd" d="M7.634 24.349C3.418 24.349 0 18.899 0 12.173 0 5.45 3.418 0 7.634 0h43.893v10.026H8.587c-.526 0-.953.963-.953 2.147 0 1.187.427 2.15.954 2.15h42.939v10.026H7.634Zm113.549-12.176c0 6.726-3.418 12.176-7.634 12.176H79.198V14.323h33.397c.527 0 .954-.963.954-2.15 0-1.184-.427-2.147-.952-2.147H76.335v14.323h-6.68V0h43.893c4.215 0 7.634 5.45 7.634 12.176l.001-.003Zm9.542 12.176c-4.216 0-7.634-5.45-7.634-12.176C123.091 5.45 126.509 0 130.725 0h43.894v24.349h-6.68V10.026h-36.26c-.527 0-.953.963-.953 2.147 0 1.187.426 2.15.953 2.15h33.397v10.026h-34.351Zm67.748-12.176c0 6.726 3.418 12.176 7.634 12.176h34.351V14.323h-33.397c-.527 0-.954-.963-.954-2.15 0-1.184.427-2.147.954-2.147h36.259v14.323H250V0h-43.893c-4.216 0-7.634 5.45-7.634 12.176v-.003ZM63.932 10.026h3.817V0H53.435v10.026h3.816v14.323h6.68V10.026ZM184.16 24.349v-7.162h5.724v7.162h6.68V0h-6.68v7.161h-5.724V0h-6.68v24.349h6.68Z" clip-rule="evenodd"/>
    <path fill="#fff" d="M126.459 51.393V55H125v-5.653h1.128c.751-.366 1.127-2.206 1.127-5.52v-7.28h7.079v12.8h1.576V55h-1.431v-3.607h-8.02Zm1.505-2.046h4.926v-10.75h-4.191v5.147c0 2.492-.244 4.355-.735 5.603Zm10.415-12.8h7.08v2.047h-5.636v4.265h4.899v2.046h-4.899v4.442h5.709v2.046h-7.153V36.548Zm14.748 14.846H148.2V36.548h4.652c.819 0 1.498.376 2.037 1.12.549.75.823 1.688.823 2.816 0 1.264-.346 2.289-1.04 3.08.463.353.824.849 1.086 1.498.268.642.404 1.354.404 2.13 0 1.187-.29 2.195-.867 3.014-.579.791-1.301 1.187-2.168 1.187Zm0-6.664h-3.483v4.618h3.483c.202.01.404-.043.593-.156a1.63 1.63 0 0 0 .505-.503c.146-.21.261-.467.338-.751.077-.285.114-.59.109-.899a3.245 3.245 0 0 0-.109-.897 2.466 2.466 0 0 0-.338-.75 1.626 1.626 0 0 0-.505-.504 1.045 1.045 0 0 0-.593-.158Zm-.275-6.135h-3.208v4.092h3.208a.89.89 0 0 0 .528-.12 1.38 1.38 0 0 0 .451-.438c.129-.192.231-.424.299-.68.068-.256.1-.531.095-.808a2.87 2.87 0 0 0-.094-.79 2.174 2.174 0 0 0-.295-.66 1.466 1.466 0 0 0-.452-.453.94.94 0 0 0-.532-.143Zm6.098-2.046h7.08v2.046h-5.633v4.265h4.898v2.046h-4.898v4.442h5.707v2.046h-7.154V36.548Zm9.402 14.845h-.376v-2.046h.376c.285.024.566-.125.78-.416.491-.688.738-2.412.738-5.17v-7.213h7.036v14.845h-1.444v-12.8h-4.148v5.168c0 5.09-.986 7.632-2.962 7.632Zm11.375-7.41c0-2.202.482-4.032 1.444-5.499.964-1.464 2.164-2.2 3.6-2.2 1.435 0 2.633.733 3.597 2.2.973 1.48 1.459 3.314 1.459 5.5 0 2.17-.486 3.992-1.459 5.473-.964 1.467-2.162 2.2-3.597 2.2-1.436 0-2.636-.733-3.6-2.197-.962-1.467-1.444-3.294-1.444-5.476Zm1.487 0c0 1.581.338 2.909 1.012 3.98.683 1.055 1.533 1.584 2.545 1.584 1 0 1.844-.53 2.527-1.584.336-.524.6-1.147.776-1.83a8.195 8.195 0 0 0 .251-2.153c0-1.583-.342-2.907-1.027-3.979-.325-.524-.718-.938-1.153-1.215a2.378 2.378 0 0 0-1.374-.392c-1.023 0-1.87.536-2.545 1.607-.674 1.042-1.012 2.37-1.012 3.983Zm12.861-5.39v12.8h-1.444V36.548h8.366v14.845h-1.444v-12.8h-5.478Zm11.528 12.8h-1.444V36.548h1.444l3.786 10.137 3.787-10.137h1.444v14.845h-1.444V40.746l-3.31 8.844h-.953l-3.31-8.864v10.667Zm12.171-14.845h7.082v2.046h-5.636v4.265h4.899v2.046h-4.899v4.442h5.707v2.046h-7.153V36.548Zm11.265 14.845h-1.444V36.548h1.444v6.311h5.478v-6.311h1.444v14.845h-1.444v-6.488h-5.478v6.488Zm12.973-12.8h-3.526v-2.045h8.498v2.046h-3.526v12.8h-1.446v-12.8Z"/>
  </g>
  <defs>
    <linearGradient id="b" x1="2.346" x2="257.843" y1="18.142" y2="20.736" gradientUnits="userSpaceOnUse">
      <stop offset=".642" stop-color="#6E007B"/>
      <stop offset=".816" stop-color="#DF0047"/>
      <stop offset="1" stop-color="#FF0800" stop-opacity=".64"/>
    </linearGradient>
    <clipPath id="a">
      <path fill="#fff" d="M0 0h250v55H0z"/>
    </clipPath>
  </defs>
</svg>
