<svg xmlns="http://www.w3.org/2000/svg" width="241" height="38" fill="none" viewBox="0 0 241 38">
  <g clip-path="url(#a)">
    <path fill="#AE0105" fill-rule="evenodd" d="M33.244 7.908 25.62 0h7.623v7.908ZM.64 29.09V16.7L16.941 0l16.302 16.7v12.39h-6.645v-9.26L16.942 9.9l-9.658 9.93v9.26H.639ZM47.363 3.256H69.44v25.48h-6.699V9.123H54.01v19.611h-6.648V3.256Zm38.945-.567c3.207 0 5.755.945 7.64 2.832 1.918 1.853 2.878 4.548 2.878 8.08v15.134h-6.152v-2.47c-.894.96-1.985 1.716-3.275 2.264-1.258.548-2.662.824-4.217.824-2.612 0-4.681-.703-6.202-2.11-1.52-1.442-2.282-3.277-2.282-5.508 0-2.299.826-4.1 2.48-5.405 1.687-1.339 3.953-2.008 6.797-2.008h6.153v-1.131c0-1.409-.397-2.505-1.19-3.295-.762-.79-1.887-1.184-3.374-1.184-1.259 0-2.382.29-3.374.875-.992.549-2.034 1.424-3.126 2.625L75.59 7.94c2.845-3.5 6.417-5.25 10.717-5.25Zm-1.34 21.568c1.456 0 2.68-.463 3.672-1.39.992-.96 1.487-2.18 1.487-3.655v-.309H84.87c-1.092 0-1.936.224-2.53.67-.596.411-.894 1.047-.894 1.904s.315 1.545.943 2.059c.662.481 1.52.72 2.58.72Zm32.344-21.568c2.282 0 4.316.585 6.102 1.75 1.821 1.133 3.243 2.71 4.268 4.736 1.026 1.99 1.537 4.255 1.537 6.795s-.511 4.82-1.537 6.845c-1.025 2.026-2.447 3.621-4.268 4.788-1.786 1.165-3.82 1.75-6.102 1.75-1.488 0-2.86-.258-4.118-.772a9.244 9.244 0 0 1-3.225-2.316V38h-6.698V3.256h6.152v3.192a8.216 8.216 0 0 1 3.275-2.78c1.389-.651 2.927-.979 4.614-.979Zm-1.24 20.333c1.786 0 3.291-.636 4.515-1.905 1.225-1.304 1.835-3.004 1.835-5.095 0-2.13-.61-3.828-1.835-5.096-1.191-1.306-2.695-1.956-4.515-1.956-1.687 0-3.141.6-4.366 1.8-1.224 1.167-1.836 2.901-1.836 5.2 0 2.264.595 4.014 1.786 5.25 1.226 1.202 2.696 1.802 4.416 1.802Zm22.879-13.898h-7.542V3.256h21.781v5.868h-7.591v19.611h-6.648V9.124Zm18.395-5.868h6.649v9.316h9.079V3.256h6.648v25.48h-6.648V18.491h-9.079v10.243h-6.649V3.256Zm51.739 15.081h-17.216c.397 1.614 1.191 2.865 2.382 3.758 1.225.857 2.729 1.287 4.515 1.287 2.416 0 4.698-.858 6.847-2.574l2.778 4.736c-2.91 2.54-6.185 3.809-9.824 3.809-2.546 0-4.845-.585-6.896-1.75-2.05-1.167-3.654-2.762-4.813-4.788-1.156-2.059-1.736-4.323-1.736-6.794 0-2.47.562-4.718 1.687-6.743 1.126-2.06 2.664-3.672 4.613-4.839 1.986-1.165 4.168-1.75 6.55-1.75 2.25 0 4.251.533 6.003 1.596a10.558 10.558 0 0 1 4.069 4.273c.992 1.783 1.488 3.775 1.488 5.97a17.08 17.08 0 0 1-.447 3.81ZM197.724 8.3c-1.422 0-2.662.464-3.721 1.39-1.058.927-1.769 2.18-2.134 3.758h11.163c-.032-1.578-.561-2.831-1.587-3.758-1.025-.926-2.265-1.39-3.721-1.39ZM228.8 2.69c2.282 0 4.316.584 6.102 1.75 1.818 1.132 3.242 2.71 4.267 4.735 1.025 1.99 1.538 4.255 1.538 6.795s-.513 4.82-1.538 6.845c-1.025 2.026-2.449 3.621-4.267 4.788-1.786 1.165-3.82 1.75-6.102 1.75-1.489 0-2.861-.258-4.118-.772a9.23 9.23 0 0 1-3.226-2.316V38h-6.697V3.256h6.152v3.192c.826-1.202 1.917-2.13 3.274-2.78 1.389-.651 2.928-.979 4.615-.979Zm-1.241 20.332c1.786 0 3.292-.636 4.515-1.905 1.223-1.304 1.836-3.004 1.836-5.095 0-2.13-.613-3.828-1.836-5.096-1.19-1.306-2.696-1.956-4.515-1.956-1.687 0-3.143.6-4.366 1.8-1.223 1.167-1.836 2.901-1.836 5.2 0 2.264.596 4.014 1.786 5.25 1.224 1.202 2.697 1.802 4.416 1.802Z" clip-rule="evenodd"/>
  </g>
  <defs>
    <clipPath id="a">
      <path fill="#fff" d="M.64 0h240.068v38H.64z"/>
    </clipPath>
  </defs>
</svg>
