<svg xmlns="http://www.w3.org/2000/svg" width="244" height="69" fill="none" viewBox="0 0 244 69">
  <g clip-path="url(#a)">
    <path fill="#fff" d="M2.188 10.026h5.711v5.166c2.38-4.036 6.346-5.974 10.63-5.974 7.456 0 12.692 5.328 12.692 13.724V43.93h-5.712V23.91c0-5.65-3.173-9.202-7.932-9.202-5.394 0-9.678 4.52-9.678 12.431V43.93H2.188V10.026ZM42.96 23.91h20.783c-1.11-6.296-5.077-9.525-10.154-9.525-4.76 0-9.677 2.906-10.63 9.525Zm-6.188 3.068c0-10.01 6.505-17.76 16.976-17.76 10.63 0 16.817 8.719 16.023 19.213H42.643c.159 6.135 5.077 10.817 11.106 10.817 4.283 0 7.615-1.614 9.677-5.65h5.87C67.71 39.57 62.157 44.575 53.59 44.575c-9.677 0-16.817-7.427-16.817-17.598Zm58.544-7.427-8.25 24.38H81.99L70.726 10.025h6.029l8.09 24.702 8.25-24.702h4.443l8.408 24.702 8.091-24.702h6.029L108.643 43.93h-5.077l-8.25-24.379Zm33.949 14.37V15.353h-7.139v-5.328h7.139V.5h5.711v9.526h9.678v5.328h-9.678v17.76c0 4.358 1.904 5.811 5.553 5.811 1.428 0 3.015-.161 4.125-.645v5.166c-1.428.484-3.014.807-5.077.807-6.028 0-10.312-3.229-10.312-10.333Zm46.009-6.943c0-6.781-4.601-12.27-11.582-12.27-6.981 0-11.581 5.489-11.581 12.27 0 6.78 4.759 12.27 11.581 12.27 6.981 0 11.582-5.49 11.582-12.27Zm-29.033 0c0-9.849 7.297-17.76 17.451-17.76 9.995 0 17.452 7.912 17.452 17.76 0 9.849-7.457 17.76-17.452 17.76-10.154-.162-17.451-7.911-17.451-17.76Zm40.931-16.952h5.712v5.166c2.379-4.036 6.346-5.974 10.629-5.974 7.457 0 12.692 5.328 12.692 13.724V43.93h-5.711V23.91c0-5.65-3.173-9.202-7.933-9.202-5.394 0-9.677 4.52-9.677 12.431V43.93h-5.712V10.026ZM243.337.984h-11.106v2.584h4.284v8.395L228.265.984h-2.538v15.338h2.538V5.344l8.25 10.978h2.538V3.568h4.284V.984ZM.109 68.28l5.712-6.711-5.305-6.01h1.386l5.236 6.083-5.569 6.64H.109v-.002Zm7.05-12.72h1.243v12.72H7.16V55.56Zm6.835 12.72-5.568-6.64 5.21-6.08h1.409l-5.306 6.009 5.712 6.711h-1.457Zm3.871 0V55.56h1.267v10.823l7.43-10.823h1.268v12.72h-1.267V57.434L19.132 68.28h-1.267Zm22.32-11.626h-4.326V68.28h-1.266V56.654H30.27V55.56h9.917l-.002 1.094Zm2.58-1.094h1.267v4.67h2.7c1.402 0 2.526.341 3.37 1.023.844.68 1.266 1.669 1.266 2.965v.075c0 1.31-.402 2.305-1.206 2.977-.805.673-1.87 1.01-3.19 1.01h-4.206V55.56Zm4.278 11.698c2.038 0 3.059-.99 3.059-2.965v-.075c0-1.976-1.1-2.966-3.299-2.966h-2.771v6.006h3.01Zm18.16 1.216c-1.704 0-3.125-.597-4.264-1.787-1.14-1.192-1.709-2.735-1.709-4.634v-.194c0-1.913.575-3.472 1.72-4.68 1.149-1.21 2.565-1.813 4.255-1.813 1.353 0 2.524.365 3.512 1.095.987.73 1.555 1.776 1.698 3.137h-1.244c-.143-1.022-.577-1.799-1.3-2.333-.727-.536-1.614-.804-2.666-.804-1.337 0-2.45.49-3.335 1.469-.884.983-1.326 2.292-1.326 3.93v.193c0 1.639.44 2.935 1.315 3.891.876.958 1.991 1.435 3.346 1.435 1.084 0 2.01-.306 2.784-.925.771-.613 1.231-1.474 1.374-2.576h1.171c-.159 1.362-.733 2.468-1.721 3.32-.987.85-2.19 1.275-3.608 1.275l-.002.001Zm8.27-12.914h4.468c1.21 0 2.186.261 2.927.78.741.518 1.111 1.328 1.111 2.431v.073c0 1.46-.731 2.373-2.197 2.75 1.88.306 2.819 1.302 2.819 2.99v.072c0 1.2-.365 2.104-1.1 2.712-.73.607-1.783.912-3.154.912h-4.875V55.56Zm1.265 1.047v4.549h3.205c1.799 0 2.699-.754 2.699-2.262v-.075c0-1.474-.908-2.212-2.724-2.212h-3.18Zm0 5.593v5.034h3.49c2.023 0 3.035-.834 3.035-2.505v-.073c0-1.637-1.044-2.456-3.13-2.456h-3.395Zm20.387 4.451c-1.165 1.215-2.599 1.823-4.303 1.823-1.704 0-3.135-.609-4.29-1.824-1.155-1.216-1.732-2.756-1.732-4.621v-.194c0-1.88.582-3.429 1.745-4.645 1.163-1.217 2.595-1.824 4.3-1.824 1.72 0 3.156.6 4.302 1.798 1.147 1.202 1.721 2.75 1.721 4.645v.197c0 1.88-.58 3.428-1.743 4.645Zm-4.28.727c1.37 0 2.498-.484 3.382-1.458.883-.97 1.326-2.27 1.326-3.891v-.194c0-1.653-.443-2.962-1.326-3.928-.884-.964-2.012-1.446-3.381-1.446-1.37 0-2.502.49-3.394 1.469-.891.983-1.339 2.284-1.339 3.907v.194c0 1.605.445 2.896 1.327 3.878.885.981 2.02 1.469 3.406 1.469Zm14.005 1.096c-1.801 0-3.238-.592-4.315-1.776-1.074-1.183-1.612-2.73-1.612-4.645v-.194c0-1.913.538-3.472 1.613-4.68 1.076-1.21 2.45-1.813 4.122-1.813 1.593 0 2.903.531 3.931 1.593 1.028 1.063 1.541 2.6 1.541 4.61v.46h-9.894c.032 1.736.44 3.061 1.22 3.977.779.917 1.912 1.372 3.394 1.372 2.165 0 3.471-.882 3.919-2.648h1.266c-.27 1.198-.86 2.123-1.769 2.772-.908.65-2.047.972-3.416.972Zm3.966-7.49c-.063-1.524-.458-2.659-1.183-3.406-.725-.743-1.717-1.117-2.975-1.117-1.226 0-2.231.405-3.011 1.215-.781.81-1.235 1.913-1.361 3.31l8.53-.002Zm4.301 7.296V55.56h1.266v10.823l7.433-10.823h1.266v12.72h-1.266V57.434l-7.433 10.846h-1.266Zm4.899-14.98c-.812 0-1.502-.282-2.067-.84-.566-.559-.88-1.276-.944-2.152h1.147c.032.599.216 1.094.549 1.485.335.388.774.583 1.317.583.555 0 1.014-.195 1.372-.585.359-.389.562-.884.609-1.483h1.124c-.064.859-.391 1.574-.981 2.14a2.961 2.961 0 0 1-2.126.851Zm13.335 14.98 5.711-6.711-5.305-6.01h1.386l5.234 6.08-5.568 6.641h-1.458Zm7.049-12.72h1.243v12.72H138.4V55.56Zm6.836 12.72-5.569-6.64 5.209-6.08h1.412l-5.307 6.009 5.711 6.711h-1.456Zm3.869 0V55.56h1.266v10.823l7.433-10.823h1.268v12.72h-1.27V57.434l-7.431 10.846h-1.266Zm21.508-9.533c0 .73-.195 1.353-.587 1.873-.39.52-.936.842-1.635.973.875.113 1.564.425 2.067.936.501.51.752 1.195.752 2.054v.123c0 1.103-.411 2.01-1.23 2.722-.821.714-1.916 1.072-3.287 1.072-1.418 0-2.54-.346-3.37-1.035-.828-.69-1.297-1.634-1.408-2.833h1.242c.285 1.848 1.466 2.773 3.538 2.773 1.018 0 1.808-.24 2.364-.718.558-.478.837-1.114.837-1.908v-.123c0-1.637-1.036-2.456-3.106-2.456h-2.056v-1.044h1.888c1.769 0 2.652-.788 2.652-2.36v-.074c0-.713-.226-1.269-.682-1.666-.455-.397-1.118-.595-1.994-.595-1.737 0-2.748.85-3.035 2.552h-1.218c.126-1.2.59-2.107 1.386-2.722.797-.617 1.777-.925 2.938-.925 1.163 0 2.112.294 2.845.875.733.584 1.099 1.395 1.099 2.431v.075Zm12.235 3.503h-7.193v6.03h-1.266V55.56h1.266v5.596h7.193V55.56h1.266v12.72h-1.266v-6.03Zm5.234-6.69h1.266v4.67h2.701c1.4 0 2.524.341 3.369 1.023.844.68 1.266 1.669 1.266 2.965v.075c0 1.31-.403 2.305-1.205 2.977-.803.671-1.869 1.01-3.192 1.01h-4.205V55.56Zm4.278 11.698c2.038 0 3.058-.99 3.058-2.965v-.075c0-1.976-1.099-2.966-3.298-2.966h-2.772v6.006h3.012Zm16.75 1.216c-1.609 0-2.943-.55-4.001-1.653-1.062-1.103-1.639-2.554-1.734-4.354a.748.748 0 0 0-.012-.097.796.796 0 0 1-.011-.12h-2.582v6.03h-1.267V55.56h1.267v5.596h2.605c.126-1.721.729-3.115 1.805-4.185 1.076-1.07 2.4-1.605 3.979-1.605 1.688 0 3.07.597 4.145 1.787 1.076 1.192 1.614 2.745 1.614 4.657v.196c0 1.896-.546 3.449-1.637 4.657-1.092 1.207-2.482 1.811-4.171 1.811Zm-3.237-2.554c.821.974 1.907 1.46 3.262 1.46 1.353 0 2.442-.482 3.262-1.447.82-.964 1.229-2.265 1.229-3.904v-.194c0-1.67-.409-2.983-1.229-3.94-.82-.955-1.901-1.434-3.238-1.434-1.355 0-2.446.487-3.275 1.458-.828.975-1.242 2.278-1.242 3.916v.194c0 1.621.409 2.92 1.23 3.891h.001Z"/>
  </g>
  <defs>
    <clipPath id="a">
      <path fill="#fff" d="M.11.5h243.227v68H.11z"/>
    </clipPath>
  </defs>
</svg>
