<svg width="52" height="52" viewBox="0 0 52 52" fill="none" xmlns="http://www.w3.org/2000/svg">
<rect x="1" y="1" width="50" height="50" rx="25" fill="#22B4E1"/>
<rect x="1" y="1" width="50" height="50" rx="25" stroke="#22B4E1" stroke-width="2"/>
<g clip-path="url(#clip0_349_1055)">
<path d="M31.8595 25.6543L20.861 14.1542C20.8174 14.1008 20.7632 14.057 20.7018 14.0256C20.6404 13.9942 20.5731 13.9758 20.5043 13.9716C20.4354 13.9674 20.3665 13.9774 20.3017 14.0012C20.237 14.0249 20.1778 14.0618 20.128 14.1094C20.0781 14.1571 20.0387 14.2146 20.0122 14.2783C19.9856 14.3419 19.9725 14.4104 19.9737 14.4794C19.9749 14.5483 19.9903 14.6163 20.019 14.679C20.0477 14.7417 20.0891 14.7978 20.1406 14.8438L30.8095 26.0002L20.1406 37.1567C20.0506 37.2529 20.0022 37.3806 20.0058 37.5123C20.0095 37.6439 20.0649 37.7688 20.1601 37.8598C20.2553 37.9508 20.3825 38.0007 20.5141 37.9985C20.6458 37.9963 20.7713 37.9423 20.8634 37.8481L31.8595 26.3457C31.9484 26.2526 31.9981 26.1288 31.9981 26C31.9981 25.8712 31.9484 25.7474 31.8595 25.6543Z" fill="white"/>
</g>
<defs>
<clipPath id="clip0_349_1055">
<rect width="24" height="24" fill="white" transform="translate(14 14)"/>
</clipPath>
</defs>
</svg>
