<svg width="30" height="30" viewBox="0 0 30 30" fill="none" xmlns="http://www.w3.org/2000/svg">
<rect x="5" y="5" width="20" height="20" rx="10" fill="#22B4E1"/>
<rect x="5" y="5" width="20" height="20" rx="10" stroke="#22B4E1" stroke-width="2"/>
<path d="M18.9078 14.7801L11.5904 7.12226C11.5614 7.0867 11.5253 7.05754 11.4844 7.0366C11.4436 7.01567 11.3989 7.00342 11.3531 7.00062C11.3073 6.99782 11.2614 7.00453 11.2183 7.02033C11.1752 7.03613 11.1358 7.06068 11.1027 7.09244C11.0695 7.1242 11.0433 7.16247 11.0256 7.20486C11.008 7.24725 10.9993 7.29284 11 7.33876C11.0008 7.38468 11.0111 7.42995 11.0302 7.47171C11.0493 7.51346 11.0768 7.55082 11.1111 7.58142L18.2092 15.0104L11.1111 22.4394C11.0512 22.5035 11.019 22.5885 11.0214 22.6762C11.0239 22.7639 11.0607 22.847 11.1241 22.9076C11.1874 22.9682 11.272 23.0014 11.3596 23C11.4472 22.9985 11.5307 22.9625 11.592 22.8998L18.9078 15.2405C18.967 15.1785 19 15.096 19 15.0103C19 14.9245 18.967 14.8421 18.9078 14.7801Z" fill="white"/>
</svg>
