<svg width="68" height="64" viewBox="0 0 68 64" fill="none" xmlns="http://www.w3.org/2000/svg">
<path d="M32.4413 2.48193L10.6181 20.7952H16.8533V36.2169L13.2161 36.9398L9.83872 38.6265L7.24073 40.0723V36.6988H1.52515V62H7.24073V58.1446H10.6181H26.7257L30.3629 57.9036L45.4312 55.9759L46.7302 55.494L48.5488 54.5301L66.475 41.2771V40.0723L65.176 38.6265L64.1368 37.9036L62.0584 38.1446L55.0438 41.5181V39.3494V20.5542H61.279L48.0292 9.71084L38.9362 2.24096L36.0784 2H33.7403L32.4413 2.48193Z" stroke="white" stroke-width="3"/>
<path d="M25.6865 34.2891L46.4705 15.012" stroke="white" stroke-width="3"/>
<path fill-rule="evenodd" clip-rule="evenodd" d="M29.5836 22.7229C32.0228 22.7229 34.0002 20.8889 34.0002 18.6265C34.0002 16.3642 32.0228 14.5302 29.5836 14.5302C27.1444 14.5302 25.167 16.3642 25.167 18.6265C25.167 20.8889 27.1444 22.7229 29.5836 22.7229ZM29.5834 20.5542C30.7313 20.5542 31.6618 19.6911 31.6618 18.6265C31.6618 17.5619 30.7313 16.6988 29.5834 16.6988C28.4356 16.6988 27.505 17.5619 27.505 18.6265C27.505 19.6911 28.4356 20.5542 29.5834 20.5542Z" fill="white" fill-opacity="0.8"/>
<path fill-rule="evenodd" clip-rule="evenodd" d="M43.0929 34.7711C45.5321 34.7711 47.5094 32.9371 47.5094 30.6747C47.5094 28.4123 45.5321 26.5783 43.0929 26.5783C40.6536 26.5783 38.6763 28.4123 38.6763 30.6747C38.6763 32.9371 40.6536 34.7711 43.0929 34.7711ZM43.093 32.6024C44.2408 32.6024 45.1714 31.7394 45.1714 30.6747C45.1714 29.6101 44.2408 28.747 43.093 28.747C41.9451 28.747 41.0146 29.6101 41.0146 30.6747C41.0146 31.7394 41.9451 32.6024 43.093 32.6024Z" fill="white" fill-opacity="0.8"/>
<path d="M7.50049 40.0723V57.9036" stroke="white" stroke-width="4"/>
<path d="M18.4119 35.9759L23.0883 38.1446L26.4656 38.8675H30.3626H33.4802L37.1174 40.0723L39.9752 42.241C40.3216 42.5622 40.9624 43.4458 40.7546 44.4096C40.5468 45.3735 39.6288 46.257 39.1958 46.5783H35.039H25.4264H23.0883C22.7419 46.5783 21.9451 46.8193 21.5295 47.7831C21.1138 48.747 21.0099 49.6305 21.0099 49.9518V50.9157" stroke="white" stroke-width="4"/>
<path d="M18.412 35.9759L17.8924 35.7349H17.113" stroke="white" stroke-width="4"/>
<path d="M39.4558 46.5783L45.9508 46.3373C46.4704 46.1767 47.8213 45.7108 49.0684 45.1325C50.3154 44.5542 53.918 42.3213 55.5634 41.2771" stroke="white" stroke-width="4"/>
</svg>
