<svg width="23" height="25" viewBox="0 0 23 25" fill="none" xmlns="http://www.w3.org/2000/svg">
<path fill-rule="evenodd" clip-rule="evenodd" d="M13.4591 5.64492C14.2106 5.80318 14.924 6.11344 15.5578 6.55768C16.1916 7.00191 16.7333 7.57126 17.1513 8.23263C17.5756 8.89339 17.869 9.63373 18.0146 10.4112C18.1603 11.1888 18.1553 11.9882 18.0001 12.7638C17.968 12.9274 17.9999 13.0974 18.089 13.237C18.1781 13.3765 18.3171 13.4743 18.4759 13.509C18.5164 13.5178 18.5577 13.5222 18.5991 13.5221C18.7403 13.5215 18.8769 13.4706 18.9857 13.3782C19.0946 13.2858 19.1691 13.1575 19.1965 13.0151C19.3839 12.0771 19.3897 11.1103 19.2134 10.17C19.0372 9.22966 18.6824 8.3343 18.1694 7.53511C17.6636 6.73519 17.0083 6.04662 16.2415 5.5094C15.4747 4.97219 14.6118 4.59705 13.7028 4.40578C13.543 4.37256 13.3769 4.40597 13.2411 4.49867C13.1052 4.59137 13.0108 4.73577 12.9785 4.90009C12.9462 5.06441 12.9787 5.2352 13.0688 5.37488C13.1589 5.51456 13.2994 5.6117 13.4591 5.64492ZM12.5003 8.64793C13.321 8.82586 14.04 9.33053 14.5001 10.0517C14.9603 10.7729 15.1243 11.6521 14.9562 12.4972C14.9233 12.6608 14.9549 12.8312 15.044 12.9709C15.1331 13.1106 15.2725 13.2083 15.4316 13.2424C15.4721 13.2512 15.5134 13.2555 15.5548 13.2555C15.696 13.2549 15.8326 13.204 15.9415 13.1116C16.0503 13.0192 16.1248 12.891 16.1522 12.7485C16.3852 11.5761 16.1578 10.3565 15.5194 9.356C14.8811 8.35547 13.8837 7.6553 12.7451 7.40837C12.5858 7.37631 12.4206 7.41034 12.2856 7.50302C12.1505 7.59571 12.0566 7.73954 12.0243 7.90315C11.992 8.06676 12.0239 8.23687 12.113 8.37639C12.2022 8.51591 12.3414 8.61352 12.5003 8.64793ZM17.0498 15.4951C16.8865 15.3451 16.6945 15.2317 16.4862 15.1622C16.2779 15.0927 16.0578 15.0685 15.8399 15.0912C15.5989 15.1326 15.3682 15.2227 15.1612 15.3564C14.9542 15.49 14.7751 15.6645 14.6341 15.8698C14.4501 16.109 14.1374 16.5103 14.0286 16.6426C13.294 17.5348 12.7825 17.237 12.439 17.0118C11.4625 16.1061 10.5776 15.1011 9.79778 14.0122C9.78817 13.9975 9.77775 13.9834 9.76656 13.9699L9.75464 13.953C9.74611 13.9416 9.73734 13.9303 9.72835 13.9192C8.8955 12.8649 8.16858 11.7266 7.55873 10.5216C7.43096 10.1237 7.27484 9.54021 8.29207 9.02014C8.30892 9.01211 8.33562 9.0007 8.37054 8.98549C8.90344 8.77612 9.39506 8.46924 9.82161 8.07969C10.0789 7.83273 10.2516 7.50679 10.3139 7.15057C10.3761 6.79435 10.3247 6.42697 10.1671 6.10332C9.40831 4.58716 8.55058 3.12555 7.59981 1.72851C7.47263 1.51853 7.30549 1.33716 7.10843 1.19528C6.91137 1.05339 6.68846 0.953936 6.45308 0.902874C6.2177 0.851812 5.97472 0.8502 5.73872 0.898135C5.50272 0.946071 5.27857 1.04256 5.07975 1.18182L5.75311 2.23507C5.82189 2.18358 5.90098 2.14852 5.98461 2.13245C6.06824 2.11637 6.1543 2.11969 6.23652 2.14215C6.31875 2.16462 6.39506 2.20566 6.4599 2.2623C6.52474 2.31894 6.57648 2.38974 6.61134 2.46955C7.52001 3.80671 8.34116 5.20455 9.06937 6.65381C9.11852 6.74042 9.13447 6.84277 9.11411 6.94083C9.09375 7.0389 9.03853 7.12562 8.95927 7.18403C8.64116 7.45397 8.28192 7.66809 7.89603 7.81775C7.84834 7.83827 7.80109 7.85982 7.75429 7.88239C6.84018 8.35008 5.86445 9.26222 6.4125 10.953C6.41948 10.975 6.42811 10.9952 6.43715 11.0176C7.09042 12.3287 7.87528 13.5658 8.77891 14.7089L8.79411 14.7287C8.80151 14.7397 8.80931 14.7503 8.81712 14.7604C9.66384 15.9455 10.6293 17.0358 11.6975 18.0135C11.7155 18.0288 11.7344 18.0429 11.7542 18.0558C13.2077 19.0131 14.2989 18.2598 14.9587 17.4605C15.0939 17.2966 15.4492 16.8386 15.5901 16.6557L15.6066 16.6341C15.6953 16.4929 15.8307 16.3895 15.9878 16.343C16.0984 16.3446 16.2039 16.391 16.2812 16.4723C17.4167 17.4107 18.4917 18.4241 19.4992 19.5062C19.5153 19.5271 19.5324 19.5471 19.5506 19.5661C20.1348 20.1673 19.9528 20.5269 19.8928 20.6447C19.8177 20.7931 19.8026 20.9659 19.8508 21.1256C19.8991 21.2853 20.0068 21.4189 20.1504 21.4973C20.2374 21.545 20.3345 21.5698 20.4331 21.5696C20.5447 21.5696 20.6542 21.538 20.7496 21.4784C20.845 21.4188 20.9227 21.3334 20.9741 21.2316C21.1709 20.8429 21.5082 19.823 20.438 18.6967C19.7897 17.8665 17.6069 15.9653 17.0498 15.4951ZM8.93379 14.8614C8.97784 14.8905 9.02534 14.9136 9.07512 14.9302C9.02523 14.913 8.97773 14.8891 8.93379 14.8593V14.8614ZM14.6567 1.43066C14.4972 1.39733 14.3312 1.43054 14.1955 1.52301C14.0597 1.61547 13.9653 1.7596 13.9328 1.9237C13.9004 2.08779 13.9327 2.25841 14.0226 2.39802C14.1125 2.53762 14.2527 2.63478 14.4123 2.66811C16.6214 3.14693 18.5566 4.5053 19.795 6.44654C21.0334 8.38777 21.4744 10.7541 21.0218 13.0287C20.989 13.1923 21.0206 13.3626 21.1097 13.5023C21.1988 13.642 21.3381 13.7397 21.4971 13.7739C21.5377 13.7826 21.579 13.787 21.6204 13.787C21.7615 13.7864 21.8981 13.7355 22.007 13.6431C22.1159 13.5507 22.1903 13.4224 22.2177 13.28C22.7354 10.6781 22.2308 7.97125 20.8141 5.75068C19.3974 3.5301 17.1838 1.97626 14.6567 1.42855V1.43066ZM19.4565 22.2726C19.4508 22.2508 19.4439 22.2294 19.436 22.2083C19.4298 22.1906 19.4253 22.1729 19.4179 22.1555C19.4105 22.1382 19.3994 22.1213 19.39 22.1044C19.3799 22.0845 19.3686 22.0651 19.3563 22.0465C19.3563 22.044 19.3538 22.0415 19.3522 22.0389C19.3407 22.0229 19.3267 22.0106 19.314 21.9967C19.3012 21.9827 19.293 21.9692 19.2807 21.957L16.5819 19.3334C16.5236 19.2766 16.455 19.2323 16.38 19.2029C16.305 19.1736 16.2251 19.1598 16.1449 19.1624C16.0647 19.165 15.9857 19.1839 15.9127 19.218C15.8396 19.2521 15.7738 19.3008 15.7191 19.3612C15.6082 19.4836 15.5487 19.6461 15.5538 19.8133C15.5589 19.9806 15.6281 20.139 15.7463 20.2539L17.9015 22.3495C16.7413 23.1602 15.7376 23.6017 15.0335 23.6017C14.7119 23.6037 14.3946 23.5257 14.1087 23.3744C14.0923 23.363 14.0753 23.3526 14.0577 23.3431C11.2433 21.6674 8.77036 19.4481 6.77486 16.8073L6.57314 16.5382C4.5841 13.8783 3.11196 10.8492 2.23718 7.61665C2.23718 7.60947 2.23225 7.59848 2.22979 7.59088C2.13766 7.28319 2.1341 6.95467 2.21952 6.64494C2.55709 5.7662 3.04398 4.95621 3.65744 4.25284L5.28352 6.97659C5.33797 7.06809 5.41435 7.14369 5.50535 7.19614C5.59635 7.24859 5.69892 7.27613 5.80323 7.27613C5.91657 7.27618 6.02764 7.24338 6.12368 7.18149C6.26149 7.09279 6.35963 6.95168 6.39672 6.7889C6.43381 6.62613 6.40685 6.45487 6.32171 6.31245L4.30861 2.93977C4.27613 2.88726 4.23625 2.83999 4.19029 2.7995C4.18249 2.79063 4.17674 2.78049 4.16811 2.77162C4.11106 2.71362 4.04339 2.66782 3.96903 2.63687C3.89466 2.60591 3.81507 2.59042 3.73485 2.59128C3.65463 2.59215 3.57537 2.60935 3.50165 2.6419C3.42793 2.67445 3.36121 2.7217 3.30535 2.78092C2.33333 3.75035 1.57205 4.92054 1.07164 6.21443C0.897237 6.77723 0.892796 7.38117 1.05891 7.94661C1.97898 11.3393 3.52388 14.5189 5.60973 17.3126L5.81145 17.5809C7.86562 20.3135 10.8684 23.0064 13.4669 24.4471C13.9444 24.7244 14.4843 24.8679 15.0326 24.8632C16.1476 24.8632 17.5589 24.2101 19.2269 22.9198C19.2456 22.9044 19.2633 22.8878 19.2799 22.87C19.2885 22.8615 19.2983 22.8552 19.3066 22.8459L19.3103 22.8412C19.3292 22.8192 19.3465 22.7957 19.362 22.7711C19.369 22.7605 19.3776 22.7508 19.3838 22.7403C19.3967 22.7167 19.4081 22.6923 19.4179 22.6672C19.4236 22.6541 19.4306 22.6418 19.4356 22.6283C19.443 22.6043 19.4491 22.5799 19.4541 22.5552C19.4573 22.5404 19.4623 22.5256 19.4643 22.5108C19.4676 22.4854 19.4693 22.4597 19.4692 22.434C19.4692 22.4196 19.4717 22.4048 19.4692 22.3917C19.4677 22.3665 19.4646 22.3413 19.4598 22.3165C19.4608 22.3011 19.4597 22.2856 19.4565 22.2705V22.2726Z" fill="white"/>
</svg>
