<svg width="60" height="59" viewBox="0 0 60 59" fill="none" xmlns="http://www.w3.org/2000/svg">
<g filter="url(#filter0_d_350_1848)">
<rect x="4.5" width="51" height="51" rx="25.5" fill="#5E5E5E" shape-rendering="crispEdges"/>
<g clip-path="url(#clip0_350_1848)">
<path fill-rule="evenodd" clip-rule="evenodd" d="M40.0115 22.3813L39.9929 22.361L37.6944 20.0139V19.647C37.6976 19.1555 37.5057 18.6827 37.1607 18.3325C36.8158 17.9823 36.3461 17.7832 35.8545 17.7788H35.4923L35.4847 17.7695L32.1455 14.3801C31.869 14.0982 31.539 13.8742 31.1749 13.7214C30.8108 13.5685 30.4199 13.4897 30.025 13.4897C29.6301 13.4897 29.2391 13.5685 28.875 13.7214C28.5109 13.8742 28.1809 14.0982 27.9044 14.3801L26.3426 15.9571C26.2258 16.0764 26.1604 16.2367 26.1604 16.4036C26.1604 16.5706 26.2258 16.7309 26.3426 16.8502C26.3997 16.9089 26.468 16.9556 26.5434 16.9875C26.6188 17.0195 26.6999 17.0361 26.7818 17.0364C26.8637 17.0367 26.9448 17.0206 27.0205 16.9891C27.0961 16.9577 27.1647 16.9114 27.2222 16.8531L28.7861 15.2749C28.948 15.1099 29.1413 14.9788 29.3544 14.8893C29.5676 14.7998 29.7965 14.7538 30.0277 14.7538C30.2589 14.7538 30.4878 14.7998 30.701 14.8893C30.9142 14.9788 31.1074 15.1099 31.2693 15.2749L33.7361 17.7801H24.146C23.6544 17.7844 23.1847 17.9836 22.8397 18.3338C22.4948 18.684 22.3029 19.1567 22.306 19.6483V20.0342L20.0659 22.2968C19.5376 22.8649 19.245 23.6125 19.2471 24.3882V34.4504C19.242 35.2521 19.555 36.0231 20.1176 36.5942C20.6803 37.1653 21.4465 37.4898 22.2481 37.4967H37.754C38.5557 37.49 39.322 37.1654 39.8846 36.5943C40.4473 36.0232 40.7603 35.2521 40.755 34.4504V24.3869C40.7554 23.6509 40.4916 22.9392 40.0115 22.3813ZM22.3073 21.8162V22.5318C22.3051 22.6148 22.3196 22.6975 22.3499 22.7748C22.3802 22.8522 22.4257 22.9227 22.4836 22.9822C22.5416 23.0417 22.6109 23.089 22.6874 23.1213C22.764 23.1536 22.8462 23.1702 22.9293 23.1702C23.0124 23.1702 23.0946 23.1536 23.1711 23.1213C23.2477 23.089 23.317 23.0417 23.3749 22.9822C23.4329 22.9227 23.4784 22.8522 23.5086 22.7748C23.5389 22.6975 23.5534 22.6148 23.5512 22.5318V19.6483C23.5503 19.4892 23.6126 19.3362 23.7243 19.2229C23.836 19.1096 23.9881 19.0452 24.1472 19.0439H35.8554C36.0144 19.0452 36.1665 19.1096 36.2781 19.2229C36.3898 19.3362 36.4519 19.4892 36.4509 19.6483V22.5318C36.4509 22.6968 36.5165 22.8551 36.6331 22.9717C36.7498 23.0884 36.9081 23.154 37.0731 23.154C37.2381 23.154 37.3964 23.0884 37.513 22.9717C37.6297 22.8551 37.6953 22.6968 37.6953 22.5318V21.8014L38.6252 22.7444L32.8417 28.6196L32.1498 27.9171C31.8735 27.6345 31.5435 27.4099 31.1793 27.2566C30.815 27.1033 30.4238 27.0243 30.0286 27.0243C29.6333 27.0243 29.2421 27.1033 28.8778 27.2566C28.5136 27.4099 28.1836 27.6345 27.9074 27.9171L27.215 28.6196L21.4104 22.7245L22.3073 21.8162ZM39.5103 34.4504C39.5133 34.9195 39.3301 35.3707 39.001 35.7049C38.6718 36.0391 38.2235 36.2292 37.7545 36.2333H22.2473C21.7782 36.2292 21.3299 36.0391 21.0008 35.7049C20.6716 35.3707 20.4885 34.9195 20.4915 34.4504V24.3869C20.4916 24.1553 20.5358 23.9258 20.6217 23.7106L26.3329 29.5089L22.1484 33.756C22.0317 33.8754 21.9664 34.0358 21.9664 34.2027C21.9664 34.3697 22.0317 34.5301 22.1484 34.6495C22.2057 34.7081 22.2741 34.7547 22.3497 34.7865C22.4253 34.8183 22.5064 34.8347 22.5884 34.8347C22.6704 34.8347 22.7515 34.8183 22.8271 34.7865C22.9026 34.7547 22.9711 34.7081 23.0284 34.6495L28.7823 28.806C28.9441 28.6407 29.1373 28.5094 29.3505 28.4198C29.5637 28.3302 29.7926 28.284 30.0239 28.284C30.2552 28.284 30.4841 28.3302 30.6973 28.4198C30.9106 28.5094 31.1037 28.6407 31.2655 28.806L37.1247 34.756C37.1819 34.8146 37.2504 34.8612 37.3259 34.893C37.4014 34.9248 37.4825 34.9411 37.5645 34.9411C37.6464 34.9411 37.7275 34.9248 37.803 34.893C37.8786 34.8612 37.947 34.8146 38.0043 34.756C38.1211 34.6367 38.1865 34.4764 38.1865 34.3095C38.1865 34.1425 38.1211 33.9822 38.0043 33.8629L33.7196 29.5089L39.3927 23.7478C39.4701 23.9517 39.5097 24.168 39.5098 24.3861V34.4483L39.5103 34.4504ZM26.1537 22.2224H33.8464C34.005 22.2094 34.153 22.1372 34.2609 22.0201C34.3688 21.9031 34.4287 21.7497 34.4287 21.5905C34.4287 21.4313 34.3688 21.2779 34.2609 21.1609C34.153 21.0438 34.005 20.9716 33.8464 20.9586H26.1537C25.9964 20.9733 25.8503 21.0461 25.7439 21.1629C25.6376 21.2797 25.5786 21.4319 25.5786 21.5899C25.5786 21.7478 25.6376 21.9001 25.7439 22.0168C25.8503 22.1336 25.9964 22.2064 26.1537 22.2211V22.2224ZM34.4711 24.6232C34.472 24.5407 34.4567 24.4588 34.4259 24.3822C34.3951 24.3056 34.3495 24.2359 34.2917 24.177C34.2339 24.1181 34.165 24.0711 34.089 24.0389C34.0131 24.0067 33.9315 23.9898 33.8489 23.9892H26.1537C25.989 23.9934 25.8324 24.0619 25.7174 24.1799C25.6025 24.2979 25.5381 24.4561 25.5381 24.6209C25.5381 24.7856 25.6025 24.9439 25.7174 25.0619C25.8324 25.1799 25.989 25.2483 26.1537 25.2526H33.8464C33.9287 25.2521 34.0102 25.2355 34.0861 25.2035C34.162 25.1716 34.2309 25.125 34.2888 25.0664C34.3467 25.0079 34.3925 24.9385 34.4235 24.8622C34.4546 24.7859 34.4703 24.7043 34.4698 24.6219L34.4711 24.6232Z" fill="white"/>
</g>
</g>
<defs>
<filter id="filter0_d_350_1848" x="0.5" y="0" width="59" height="59" filterUnits="userSpaceOnUse" color-interpolation-filters="sRGB">
<feFlood flood-opacity="0" result="BackgroundImageFix"/>
<feColorMatrix in="SourceAlpha" type="matrix" values="0 0 0 0 0 0 0 0 0 0 0 0 0 0 0 0 0 0 127 0" result="hardAlpha"/>
<feOffset dy="4"/>
<feGaussianBlur stdDeviation="2"/>
<feComposite in2="hardAlpha" operator="out"/>
<feColorMatrix type="matrix" values="0 0 0 0 0 0 0 0 0 0 0 0 0 0 0 0 0 0 0.25 0"/>
<feBlend mode="normal" in2="BackgroundImageFix" result="effect1_dropShadow_350_1848"/>
<feBlend mode="normal" in="SourceGraphic" in2="effect1_dropShadow_350_1848" result="shape"/>
</filter>
<clipPath id="clip0_350_1848">
<rect width="24" height="24" fill="white" transform="translate(18 13.5)"/>
</clipPath>
</defs>
</svg>
