<svg width="60" height="59" viewBox="0 0 60 59" fill="none" xmlns="http://www.w3.org/2000/svg">
<g filter="url(#filter0_d_349_1209)">
<rect x="4.5" width="51" height="51" rx="25.5" fill="#5E5E5E" shape-rendering="crispEdges"/>
<path fill-rule="evenodd" clip-rule="evenodd" d="M31.8256 18.1867C32.5953 18.347 33.3259 18.6613 33.9752 19.1114C34.6244 19.5615 35.1792 20.1383 35.6074 20.8084C36.0419 21.4779 36.3424 22.2279 36.4916 23.0157C36.6408 23.8034 36.6357 24.6134 36.4767 25.3992C36.4438 25.5649 36.4766 25.7372 36.5678 25.8786C36.659 26.02 36.8014 26.119 36.964 26.1542C37.0056 26.1631 37.0479 26.1675 37.0903 26.1675C37.2349 26.1668 37.3748 26.1153 37.4863 26.0217C37.5978 25.9281 37.6741 25.7981 37.7021 25.6538C37.8941 24.7035 37.9 23.7239 37.7195 22.7713C37.539 21.8186 37.1756 20.9114 36.6501 20.1017C36.1321 19.2913 35.4609 18.5936 34.6755 18.0494C33.8901 17.5051 33.0062 17.125 32.0751 16.9312C31.9114 16.8976 31.7413 16.9314 31.6022 17.0253C31.4631 17.1192 31.3663 17.2655 31.3332 17.432C31.3001 17.5985 31.3334 17.7715 31.4257 17.9131C31.5181 18.0546 31.6619 18.153 31.8256 18.1867ZM30.8434 21.2292C31.6841 21.4095 32.4205 21.9208 32.8918 22.6515C33.3631 23.3821 33.5311 24.2728 33.359 25.1291C33.3253 25.2949 33.3576 25.4675 33.4489 25.609C33.5402 25.7506 33.6829 25.8495 33.8459 25.8841C33.8874 25.893 33.9297 25.8974 33.9721 25.8974C34.1167 25.8967 34.2566 25.8452 34.3681 25.7516C34.4796 25.658 34.5559 25.528 34.584 25.3838C34.8227 24.1959 34.5897 22.9603 33.9359 21.9466C33.282 20.9329 32.2605 20.2235 31.0942 19.9733C30.931 19.9408 30.7618 19.9753 30.6235 20.0692C30.4852 20.1631 30.389 20.3088 30.3559 20.4746C30.3228 20.6404 30.3555 20.8127 30.4468 20.9541C30.5381 21.0954 30.6807 21.1943 30.8434 21.2292ZM35.5034 28.1664C35.3361 28.0145 35.1395 27.8996 34.9261 27.8292C34.7128 27.7587 34.4873 27.7342 34.2641 27.7572C34.0172 27.7992 33.7809 27.8905 33.569 28.0259C33.357 28.1613 33.1735 28.3381 33.0291 28.5461C32.8406 28.7884 32.5203 29.195 32.4088 29.329C31.6564 30.233 31.1325 29.9313 30.7807 29.7031C29.7805 28.7854 28.8741 27.7672 28.0753 26.664C28.0655 26.6491 28.0548 26.6348 28.0434 26.6212L28.0312 26.6041C28.0224 26.5925 28.0134 26.5811 28.0042 26.5699C27.1512 25.5016 26.4066 24.3483 25.7819 23.1275C25.6511 22.7243 25.4912 22.1332 26.5331 21.6063C26.5503 21.5982 26.5777 21.5866 26.6135 21.5712C27.1593 21.3591 27.6628 21.0481 28.0997 20.6535C28.3633 20.4033 28.5402 20.073 28.6039 19.7121C28.6677 19.3512 28.615 18.979 28.4536 18.6511C27.6764 17.115 26.7979 15.6341 25.824 14.2187C25.6937 14.006 25.5226 13.8222 25.3207 13.6785C25.1189 13.5347 24.8905 13.4339 24.6495 13.3822C24.4084 13.3305 24.1595 13.3288 23.9177 13.3774C23.676 13.426 23.4464 13.5237 23.2428 13.6648L23.9325 14.7319C24.0029 14.6798 24.084 14.6443 24.1696 14.628C24.2553 14.6117 24.3434 14.615 24.4276 14.6378C24.5119 14.6606 24.59 14.7021 24.6564 14.7595C24.7229 14.8169 24.7759 14.8886 24.8116 14.9695C25.7423 16.3243 26.5834 17.7405 27.3292 19.2088C27.3796 19.2966 27.3959 19.4003 27.3751 19.4996C27.3542 19.599 27.2977 19.6868 27.2165 19.746C26.8906 20.0195 26.5227 20.2364 26.1274 20.3881C26.0786 20.4089 26.0302 20.4307 25.9822 20.4536C25.0459 20.9274 24.0465 21.8516 24.6079 23.5646C24.615 23.5868 24.6239 23.6074 24.6331 23.6301C25.3023 24.9583 26.1062 26.2118 27.0317 27.3699L27.0473 27.39C27.0549 27.4011 27.0629 27.4118 27.0709 27.4221C27.9381 28.6228 28.927 29.7275 30.0211 30.718C30.0396 30.7335 30.059 30.7478 30.0792 30.7608C31.568 31.7308 32.6857 30.9676 33.3615 30.1577C33.5 29.9916 33.864 29.5276 34.0083 29.3423L34.0251 29.3204C34.116 29.1774 34.2547 29.0727 34.4156 29.0255C34.5289 29.0271 34.6369 29.0742 34.7161 29.1565C35.8792 30.1073 36.9803 31.134 38.0123 32.2303C38.0287 32.2515 38.0462 32.2718 38.0649 32.2911C38.6633 32.9002 38.4768 33.2644 38.4154 33.3838C38.3384 33.5341 38.323 33.7092 38.3724 33.871C38.4218 34.0328 38.5321 34.1682 38.6792 34.2476C38.7684 34.2959 38.8678 34.321 38.9688 34.3208C39.0831 34.3208 39.1953 34.2889 39.293 34.2285C39.3907 34.1681 39.4703 34.0816 39.523 33.9784C39.7245 33.5846 40.07 32.5513 38.9738 31.4101C38.3098 30.569 36.074 28.6429 35.5034 28.1664ZM27.1904 27.5244C27.2355 27.5539 27.2841 27.5773 27.3351 27.5942C27.284 27.5766 27.2354 27.5525 27.1904 27.5222V27.5244ZM33.0522 13.9169C32.8888 13.8832 32.7188 13.9168 32.5798 14.0105C32.4407 14.1042 32.344 14.2502 32.3108 14.4165C32.2776 14.5827 32.3106 14.7556 32.4027 14.897C32.4948 15.0385 32.6384 15.1369 32.8018 15.1707C35.0646 15.6558 37.0467 17.032 38.3152 18.9988C39.5836 20.9656 40.0354 23.3631 39.5718 25.6675C39.5382 25.8333 39.5705 26.0059 39.6618 26.1474C39.7531 26.289 39.8958 26.3879 40.0586 26.4226C40.1002 26.4314 40.1425 26.4359 40.1849 26.4359C40.3295 26.4352 40.4694 26.3837 40.5809 26.2901C40.6924 26.1965 40.7687 26.0665 40.7967 25.9222C41.327 23.2861 40.8101 20.5436 39.3591 18.2938C37.908 16.044 35.6406 14.4697 33.0522 13.9148V13.9169ZM37.9685 35.0331C37.9626 35.011 37.9556 34.9893 37.9475 34.968C37.9412 34.95 37.9365 34.9321 37.9289 34.9145C37.9214 34.897 37.91 34.8799 37.9003 34.8627C37.89 34.8425 37.8785 34.8229 37.8658 34.8041C37.8658 34.8015 37.8633 34.799 37.8616 34.7964C37.8498 34.7801 37.8355 34.7677 37.8225 34.7536C37.8094 34.7395 37.801 34.7258 37.7884 34.7133L35.0241 32.0552C34.9644 31.9977 34.8942 31.9528 34.8173 31.923C34.7405 31.8933 34.6586 31.8793 34.5765 31.882C34.4943 31.8846 34.4135 31.9038 34.3386 31.9383C34.2638 31.9729 34.1964 32.0222 34.1404 32.0835C34.0267 32.2074 33.9658 32.3721 33.9711 32.5415C33.9763 32.7109 34.0471 32.8714 34.1682 32.9879L36.3757 35.111C35.1874 35.9324 34.1594 36.3797 33.4381 36.3797C33.1087 36.3817 32.7838 36.3027 32.4909 36.1494C32.4741 36.1379 32.4566 36.1273 32.4387 36.1177C29.556 34.4199 27.023 32.1714 24.979 29.4959L24.7724 29.2233C22.7351 26.5284 21.2272 23.4595 20.3312 20.1843C20.3312 20.1771 20.3262 20.1659 20.3237 20.1582C20.2293 19.8465 20.2256 19.5136 20.3131 19.1998C20.6589 18.3095 21.1576 17.4889 21.786 16.7763L23.4515 19.5358C23.5073 19.6286 23.5855 19.7051 23.6787 19.7583C23.7719 19.8114 23.877 19.8393 23.9838 19.8393C24.0999 19.8394 24.2137 19.8061 24.3121 19.7434C24.4532 19.6536 24.5537 19.5106 24.5917 19.3457C24.6297 19.1808 24.6021 19.0073 24.5149 18.863L22.4529 15.4459C22.4197 15.3927 22.3788 15.3448 22.3317 15.3038C22.3237 15.2948 22.3179 15.2845 22.309 15.2756C22.2506 15.2168 22.1813 15.1704 22.1051 15.139C22.0289 15.1077 21.9474 15.092 21.8652 15.0928C21.7831 15.0937 21.7019 15.1111 21.6264 15.1441C21.5509 15.1771 21.4825 15.225 21.4253 15.285C20.4297 16.2672 19.65 17.4527 19.1374 18.7637C18.9588 19.3339 18.9542 19.9457 19.1244 20.5186C20.0668 23.956 21.6492 27.1774 23.7856 30.0079L23.9922 30.2797C26.0963 33.0483 29.172 35.7766 31.8336 37.2362C32.3226 37.5172 32.8756 37.6626 33.4373 37.6578C34.5793 37.6578 36.0248 36.9961 37.7333 35.6889C37.7524 35.6733 37.7706 35.6564 37.7876 35.6383C37.7964 35.6298 37.8065 35.6234 37.8149 35.6139L37.8187 35.6092C37.8381 35.5869 37.8558 35.5632 37.8717 35.5382C37.8789 35.5275 37.8877 35.5176 37.894 35.5069C37.9073 35.4831 37.9189 35.4583 37.9289 35.4329C37.9348 35.4196 37.942 35.4072 37.947 35.3935C37.9546 35.3692 37.961 35.3445 37.966 35.3195C37.9693 35.3045 37.9744 35.2895 37.9765 35.2745C37.9799 35.2487 37.9816 35.2227 37.9815 35.1966C37.9815 35.182 37.9841 35.1671 37.9815 35.1538C37.98 35.1282 37.9768 35.1028 37.9719 35.0776C37.9729 35.062 37.9717 35.0463 37.9685 35.0309V35.0331Z" fill="white"/>
</g>
<defs>
<filter id="filter0_d_349_1209" x="0.5" y="0" width="59" height="59" filterUnits="userSpaceOnUse" color-interpolation-filters="sRGB">
<feFlood flood-opacity="0" result="BackgroundImageFix"/>
<feColorMatrix in="SourceAlpha" type="matrix" values="0 0 0 0 0 0 0 0 0 0 0 0 0 0 0 0 0 0 127 0" result="hardAlpha"/>
<feOffset dy="4"/>
<feGaussianBlur stdDeviation="2"/>
<feComposite in2="hardAlpha" operator="out"/>
<feColorMatrix type="matrix" values="0 0 0 0 0 0 0 0 0 0 0 0 0 0 0 0 0 0 0.25 0"/>
<feBlend mode="normal" in2="BackgroundImageFix" result="effect1_dropShadow_349_1209"/>
<feBlend mode="normal" in="SourceGraphic" in2="effect1_dropShadow_349_1209" result="shape"/>
</filter>
</defs>
</svg>
