<svg width="51" height="51" viewBox="0 0 51 51" fill="none" xmlns="http://www.w3.org/2000/svg">
<rect width="51" height="51" rx="25.5" fill="white"/>
<g clip-path="url(#clip0_350_1885)">
<path fill-rule="evenodd" clip-rule="evenodd" d="M35.8692 15.4066C36.1987 15.2679 36.5593 15.2201 36.9136 15.2681C37.2678 15.3161 37.6027 15.4582 37.8834 15.6795C38.1642 15.9009 38.3804 16.1934 38.5097 16.5267C38.639 16.86 38.6766 17.2219 38.6185 17.5746L35.5945 35.9173C35.3012 37.6866 33.3599 38.7013 31.7372 37.82C30.3799 37.0826 28.3639 35.9466 26.5505 34.7613C25.6439 34.168 22.8665 32.268 23.2079 30.916C23.5012 29.76 28.1679 25.416 30.8345 22.8333C31.8812 21.8186 31.4039 21.2333 30.1679 22.1666C27.0985 24.484 22.1705 28.008 20.5412 29C19.1039 29.8746 18.3545 30.024 17.4585 29.8746C15.8239 29.6026 14.3079 29.1813 13.0705 28.668C11.3985 27.9746 11.4799 25.676 13.0692 25.0066L35.8692 15.4066Z" fill="#0E0E0E"/>
</g>
<defs>
<clipPath id="clip0_350_1885">
<rect width="32" height="32" fill="white" transform="translate(9.5 9.5)"/>
</clipPath>
</defs>
</svg>
