<svg width="52" height="51" viewBox="0 0 52 51" fill="none" xmlns="http://www.w3.org/2000/svg">
<rect x="0.5" width="51" height="51" rx="25.5" fill="#5E5E5E"/>
<g clip-path="url(#clip0_350_1853)">
<path fill-rule="evenodd" clip-rule="evenodd" d="M26.0013 13.5026C23.6261 13.4914 21.301 14.1855 19.3206 15.4969C17.3402 16.8084 15.7936 18.6782 14.8769 20.8695C13.9601 23.0607 13.7144 25.4747 14.1709 27.8057C14.6275 30.1367 15.7656 32.2798 17.4412 33.9633C19.1168 35.6469 21.2544 36.7951 23.5832 37.2627C25.9121 37.7302 28.3272 37.4959 30.5228 36.5896C32.7183 35.6832 34.5954 34.1455 35.9163 32.1713C37.2371 30.1971 37.9422 27.8753 37.9422 25.5C37.946 22.3267 36.691 19.2815 34.4525 17.0323C32.2139 14.7832 29.1746 13.5138 26.0013 13.5026ZM26.0013 36.2348C23.8761 36.2449 21.7956 35.624 20.0236 34.4506C18.2515 33.2772 16.8677 31.6042 16.0473 29.6436C15.227 27.683 15.0071 25.523 15.4155 23.4373C15.8239 21.3516 16.8423 19.4341 18.3415 17.9277C19.8407 16.4213 21.7534 15.3938 23.8371 14.9754C25.9208 14.5571 28.0819 14.7666 30.0464 15.5776C32.0109 16.3886 33.6904 17.7644 34.8723 19.5308C36.0541 21.2973 36.685 23.3747 36.685 25.5C36.6885 28.3393 35.5656 31.0639 33.5628 33.0763C31.5599 35.0887 28.8405 36.2249 26.0013 36.2348ZM26.0013 18.811C26.0843 18.8109 26.1664 18.7943 26.2429 18.7624C26.3194 18.7304 26.3889 18.6836 26.4473 18.6248C26.5057 18.5659 26.5519 18.4961 26.5832 18.4193C26.6146 18.3425 26.6304 18.2603 26.6299 18.1774V16.2928C26.6321 16.2089 26.6175 16.1255 26.5869 16.0473C26.5563 15.9692 26.5103 15.898 26.4518 15.8378C26.3932 15.7777 26.3232 15.73 26.2459 15.6974C26.1685 15.6647 26.0855 15.6479 26.0016 15.6479C25.9176 15.6479 25.8346 15.6647 25.7572 15.6974C25.6799 15.73 25.6099 15.7777 25.5513 15.8378C25.4928 15.898 25.4468 15.9692 25.4162 16.0473C25.3856 16.1255 25.371 16.2089 25.3732 16.2928V18.1774C25.3727 18.2602 25.3886 18.3424 25.42 18.419C25.4513 18.4957 25.4975 18.5655 25.5559 18.6243C25.6142 18.6832 25.6836 18.7299 25.76 18.7619C25.8365 18.7938 25.9185 18.8108 26.0013 18.811ZM25.6832 26.0425C25.6925 26.048 25.7014 26.0534 25.7107 26.0581C25.7509 26.0797 25.7934 26.0967 25.8374 26.1088C25.8438 26.1088 25.8501 26.1117 25.8569 26.1134C25.9039 26.1249 25.9521 26.131 26.0005 26.1316C26.0476 26.1312 26.0945 26.1255 26.1403 26.1147L26.1538 26.1117C26.1977 26.1008 26.2402 26.0849 26.2806 26.0644C26.2882 26.0606 26.2958 26.0572 26.303 26.053C26.3102 26.0488 26.3186 26.0458 26.3262 26.0412L32.9742 22.0191C33.1171 21.9321 33.2198 21.7922 33.26 21.6298C33.3001 21.4674 33.2744 21.2957 33.1884 21.1522C33.1461 21.0813 33.0902 21.0194 33.0238 20.9701C32.9575 20.9208 32.882 20.8852 32.8019 20.8652C32.7217 20.8452 32.6383 20.8413 32.5566 20.8536C32.4749 20.866 32.3965 20.8944 32.3258 20.9372L26.0191 24.7527L20.8475 21.2807C20.7081 21.1883 20.5378 21.155 20.3739 21.1883C20.21 21.2215 20.0661 21.3185 19.9737 21.4579C19.8813 21.5972 19.8481 21.7676 19.8813 21.9315C19.9145 22.0954 20.0115 22.2393 20.1509 22.3317L25.6524 26.026C25.6634 26.0315 25.6731 26.0361 25.6832 26.042V26.0425ZM18.7158 24.8689H16.8402C16.6756 24.8732 16.5191 24.9416 16.4042 25.0595C16.2893 25.1774 16.225 25.3356 16.225 25.5003C16.225 25.6649 16.2893 25.8231 16.4042 25.941C16.5191 26.059 16.6756 26.1273 16.8402 26.1316H18.7158C18.8833 26.1316 19.044 26.0651 19.1624 25.9466C19.2809 25.8282 19.3474 25.6675 19.3474 25.5C19.3474 25.3325 19.2809 25.1719 19.1624 25.0535C19.044 24.935 18.8833 24.8685 18.7158 24.8685V24.8689ZM26.0013 32.1899C25.8344 32.1903 25.6744 32.2571 25.5566 32.3754C25.4388 32.4938 25.3728 32.6541 25.3732 32.821V34.7056C25.371 34.7895 25.3856 34.8729 25.4162 34.9511C25.4468 35.0292 25.4928 35.1004 25.5513 35.1605C25.6099 35.2206 25.6799 35.2684 25.7572 35.301C25.8346 35.3337 25.9176 35.3505 26.0016 35.3505C26.0855 35.3505 26.1685 35.3337 26.2459 35.301C26.3232 35.2684 26.3932 35.2206 26.4518 35.1605C26.5103 35.1004 26.5563 35.0292 26.5869 34.9511C26.6175 34.8729 26.6321 34.7895 26.6299 34.7056V32.821C26.6302 32.7383 26.6141 32.6563 26.5826 32.5798C26.5511 32.5032 26.5049 32.4337 26.4465 32.375C26.3881 32.3164 26.3188 32.2698 26.2424 32.2379C26.166 32.2061 26.0841 32.1901 26.0013 32.1899ZM35.1629 24.8689H33.2877C33.1231 24.8732 32.9666 24.9416 32.8517 25.0595C32.7368 25.1774 32.6725 25.3356 32.6725 25.5003C32.6725 25.6649 32.7368 25.8231 32.8517 25.941C32.9666 26.059 33.1231 26.1273 33.2877 26.1316H35.1629C35.3304 26.1316 35.4911 26.0651 35.6095 25.9466C35.728 25.8282 35.7945 25.6675 35.7945 25.5C35.7945 25.3325 35.728 25.1719 35.6095 25.0535C35.4911 24.935 35.3304 24.8685 35.1629 24.8685V24.8689Z" fill="white"/>
</g>
<defs>
<clipPath id="clip0_350_1853">
<rect width="24" height="24" fill="white" transform="translate(14 13.5)"/>
</clipPath>
</defs>
</svg>
