<svg width="51" height="51" viewBox="0 0 51 51" fill="none" xmlns="http://www.w3.org/2000/svg">
<rect width="51" height="51" rx="25.5" fill="white"/>
<path d="M38.2718 18.64C38.4585 18.02 38.2718 17.5653 37.3892 17.5653H34.4652C33.7212 17.5653 33.3812 17.9586 33.1945 18.3906C33.1945 18.3906 31.7078 22.016 29.6012 24.3666C28.9212 25.0506 28.6105 25.2666 28.2398 25.2666C28.0545 25.2666 27.7852 25.0506 27.7852 24.4306V18.64C27.7852 17.896 27.5705 17.5653 26.9505 17.5653H22.3558C21.8918 17.5653 21.6118 17.9093 21.6118 18.2373C21.6118 18.9413 22.6652 19.104 22.7732 21.088V25.392C22.7732 26.3346 22.6038 26.5066 22.2305 26.5066C21.2398 26.5066 18.8292 22.868 17.3985 18.7026C17.1198 17.8933 16.8385 17.5666 16.0918 17.5666H13.1692C12.3332 17.5666 12.1665 17.96 12.1665 18.392C12.1665 19.168 13.1572 23.008 16.7812 28.0866C19.1972 31.5546 22.5985 33.4346 25.6972 33.4346C27.5545 33.4346 27.7838 33.0173 27.7838 32.2973V29.676C27.7838 28.8413 27.9612 28.6733 28.5492 28.6733C28.9812 28.6733 29.7252 28.892 31.4598 30.5626C33.4412 32.544 33.7692 33.4333 34.8825 33.4333H37.8052C38.6398 33.4333 39.0572 33.016 38.8172 32.192C38.5545 31.372 37.6078 30.1786 36.3518 28.7666C35.6692 27.9613 34.6492 27.0946 34.3385 26.6613C33.9052 26.1026 34.0305 25.856 34.3385 25.36C34.3398 25.3613 37.9012 20.3453 38.2718 18.64Z" fill="#0E0E0E"/>
</svg>
