<svg width="51" height="51" viewBox="0 0 51 51" fill="none" xmlns="http://www.w3.org/2000/svg">
<rect width="51" height="51" rx="25.5" fill="white"/>
<path d="M34.9001 16.0467C33.6777 14.8119 32.2216 13.8329 30.6169 13.1668C29.0122 12.5006 27.2909 12.1607 25.5534 12.1667C18.2734 12.1667 12.3401 18.1 12.3401 25.38C12.3401 27.7134 12.9534 29.98 14.1001 31.98L12.2334 38.8334L19.2334 36.9934C21.1667 38.0467 23.3401 38.6067 25.5534 38.6067C32.8334 38.6067 38.7667 32.6734 38.7667 25.3934C38.7667 21.86 37.3934 18.54 34.9001 16.0467ZM25.5534 36.3667C23.5801 36.3667 21.6467 35.8334 19.9534 34.8334L19.5534 34.5934L15.3934 35.6867L16.5001 31.6334L16.2334 31.22C15.1371 29.4693 14.5549 27.4457 14.5534 25.38C14.5534 19.3267 19.4867 14.3934 25.5401 14.3934C28.4734 14.3934 31.2334 15.54 33.3001 17.62C34.3234 18.6387 35.1343 19.8503 35.6859 21.1846C36.2375 22.519 36.5188 23.9495 36.5134 25.3934C36.5401 31.4467 31.6067 36.3667 25.5534 36.3667ZM31.5801 28.1534C31.2467 27.9934 29.6201 27.1934 29.3267 27.0734C29.0201 26.9667 28.8067 26.9134 28.5801 27.2334C28.3534 27.5667 27.7267 28.3134 27.5401 28.5267C27.3534 28.7534 27.1534 28.78 26.8201 28.6067C26.4867 28.4467 25.4201 28.0867 24.1667 26.9667C23.1801 26.0867 22.5267 25.0067 22.3267 24.6734C22.1401 24.34 22.3001 24.1667 22.4734 23.9934C22.6201 23.8467 22.8067 23.6067 22.9667 23.42C23.1267 23.2334 23.1934 23.0867 23.3001 22.8734C23.4067 22.6467 23.3534 22.46 23.2734 22.3C23.1934 22.14 22.5267 20.5134 22.2601 19.8467C21.9934 19.2067 21.7134 19.2867 21.5134 19.2734H20.8734C20.6467 19.2734 20.3001 19.3534 19.9934 19.6867C19.7001 20.02 18.8467 20.82 18.8467 22.4467C18.8467 24.0734 20.0334 25.6467 20.1934 25.86C20.3534 26.0867 22.5267 29.42 25.8334 30.8467C26.6201 31.1934 27.2334 31.3934 27.7134 31.54C28.5001 31.7934 29.2201 31.7534 29.7934 31.6734C30.4334 31.58 31.7534 30.8734 32.0201 30.1C32.3001 29.3267 32.3001 28.6734 32.2067 28.5267C32.1134 28.38 31.9134 28.3134 31.5801 28.1534Z" fill="#0E0E0E"/>
</svg>
