<svg width="47" height="47" viewBox="0 0 47 47" fill="none" xmlns="http://www.w3.org/2000/svg">
<g id="Group 40">
<circle id="Ellipse 22" cx="23.5" cy="23.5" r="23.5" fill="#22B4E1"/>
<path id="Vector" fill-rule="evenodd" clip-rule="evenodd" d="M24.8026 17.3827C25.5109 17.5278 26.1833 17.8122 26.7807 18.2194C27.3781 18.6265 27.8887 19.1484 28.2827 19.7546C28.6826 20.3602 28.9592 21.0388 29.0964 21.7515C29.2337 22.4642 29.2291 23.1969 29.0828 23.9078C29.0525 24.0577 29.0826 24.2136 29.1665 24.3415C29.2505 24.4694 29.3815 24.559 29.5312 24.5909C29.5694 24.5989 29.6083 24.6029 29.6474 24.6029C29.7804 24.6023 29.9092 24.5557 30.0118 24.471C30.1144 24.3863 30.1846 24.2687 30.2104 24.1382C30.3871 23.2784 30.3925 22.3922 30.2264 21.5303C30.0603 20.6685 29.7259 19.8478 29.2423 19.1153C28.7656 18.3821 28.1479 17.7509 27.4252 17.2585C26.7024 16.7661 25.889 16.4223 25.0322 16.247C24.8816 16.2165 24.725 16.2471 24.597 16.3321C24.469 16.4171 24.3799 16.5494 24.3495 16.7C24.319 16.8506 24.3497 17.0072 24.4346 17.1352C24.5196 17.2633 24.652 17.3523 24.8026 17.3827ZM23.8987 20.1353C24.6724 20.2983 25.35 20.7609 25.7838 21.422C26.2175 22.083 26.3721 22.8888 26.2137 23.6634C26.1826 23.8134 26.2124 23.9696 26.2964 24.0976C26.3804 24.2257 26.5118 24.3152 26.6617 24.3465C26.6999 24.3545 26.7389 24.3585 26.7779 24.3585C26.9109 24.3579 27.0397 24.3113 27.1423 24.2266C27.2449 24.1419 27.3151 24.0244 27.3409 23.8938C27.5606 22.8192 27.3462 21.7013 26.7445 20.7843C26.1429 19.8672 25.2028 19.2254 24.1295 18.9991C23.9794 18.9697 23.8237 19.0009 23.6964 19.0858C23.5691 19.1708 23.4806 19.3026 23.4501 19.4526C23.4197 19.6026 23.4497 19.7585 23.5338 19.8864C23.6178 20.0142 23.749 20.1037 23.8987 20.1353ZM28.1871 26.4113C28.0331 26.2738 27.8522 26.1699 27.6558 26.1061C27.4595 26.0424 27.252 26.0203 27.0466 26.0411C26.8194 26.079 26.602 26.1616 26.4069 26.2841C26.2118 26.4066 26.0429 26.5666 25.9101 26.7548C25.7366 26.974 25.4419 27.3418 25.3393 27.463C24.6469 28.2809 24.1648 28.0079 23.841 27.8015C22.9206 26.9713 22.0865 26.0501 21.3515 25.0521C21.3424 25.0386 21.3326 25.0257 21.322 25.0133L21.3108 24.9979C21.3028 24.9874 21.2945 24.977 21.286 24.9669C20.501 24.0005 19.8158 22.9571 19.241 21.8527C19.1206 21.4879 18.9734 20.9531 19.9322 20.4764C19.9481 20.4691 19.9733 20.4586 20.0062 20.4447C20.5085 20.2528 20.9719 19.9715 21.3739 19.6144C21.6164 19.3881 21.7792 19.0893 21.8379 18.7628C21.8966 18.4363 21.8481 18.0996 21.6996 17.8029C20.9844 16.4132 20.1759 15.0735 19.2797 13.793C19.1598 13.6005 19.0023 13.4343 18.8166 13.3042C18.6308 13.1742 18.4207 13.083 18.1988 13.0362C17.977 12.9894 17.7479 12.988 17.5255 13.0319C17.3031 13.0758 17.0918 13.1643 16.9044 13.2919L17.5391 14.2573C17.6039 14.2101 17.6784 14.178 17.7573 14.1632C17.8361 14.1485 17.9172 14.1515 17.9947 14.1721C18.0722 14.1927 18.1441 14.2304 18.2053 14.2823C18.2664 14.3342 18.3152 14.3991 18.348 14.4722C19.2045 15.6979 19.9785 16.9791 20.6649 18.3075C20.7112 18.3869 20.7262 18.4807 20.7071 18.5706C20.6879 18.6604 20.6358 18.7399 20.5611 18.7935C20.2613 19.0409 19.9227 19.2371 19.5589 19.3743C19.514 19.3931 19.4694 19.4129 19.4253 19.4336C18.5637 19.8623 17.644 20.6983 18.1606 22.248C18.1672 22.2682 18.1753 22.2868 18.1838 22.3073C18.7996 23.509 19.5394 24.6429 20.3911 25.6906L20.4054 25.7088C20.4124 25.7189 20.4198 25.7286 20.4271 25.7379C21.2252 26.8241 22.1352 27.8235 23.1421 28.7196C23.1591 28.7337 23.1769 28.7466 23.1955 28.7584C24.5656 29.6359 25.5941 28.9454 26.216 28.2127C26.3434 28.0625 26.6784 27.6427 26.8112 27.475L26.8267 27.4553C26.9103 27.3259 27.038 27.2311 27.186 27.1885C27.2902 27.1899 27.3897 27.2325 27.4625 27.307C28.5329 28.1671 29.5461 29.096 30.4958 30.0878C30.5109 30.107 30.5271 30.1253 30.5442 30.1428C31.0949 30.6938 30.9233 31.0233 30.8668 31.1314C30.796 31.2673 30.7817 31.4257 30.8272 31.5721C30.8727 31.7185 30.9742 31.841 31.1096 31.9128C31.1916 31.9565 31.2831 31.9793 31.376 31.9791C31.4812 31.9791 31.5844 31.9502 31.6744 31.8955C31.7643 31.8409 31.8375 31.7626 31.886 31.6693C32.0715 31.313 32.3894 30.3782 31.3806 29.3458C30.7696 28.5849 28.7122 26.8423 28.1871 26.4113ZM20.5371 25.8304C20.5786 25.8571 20.6234 25.8783 20.6703 25.8935C20.6233 25.8777 20.5785 25.8558 20.5371 25.8285V25.8304ZM25.9314 13.52C25.781 13.4894 25.6246 13.5199 25.4966 13.6046C25.3687 13.6894 25.2796 13.8215 25.2491 13.9719C25.2185 14.1223 25.2489 14.2787 25.3337 14.4067C25.4184 14.5346 25.5506 14.6237 25.701 14.6542C27.7833 15.0931 29.6072 16.3382 30.7745 18.1175C31.9418 19.8968 32.3576 22.0657 31.9309 24.1506C31.9 24.3005 31.9298 24.4567 32.0138 24.5847C32.0978 24.7128 32.2291 24.8023 32.379 24.8337C32.4172 24.8416 32.4561 24.8457 32.4951 24.8457C32.6282 24.8451 32.7569 24.7985 32.8596 24.7138C32.9622 24.6291 33.0324 24.5115 33.0582 24.381C33.5461 21.9961 33.0705 19.515 31.7352 17.4797C30.3998 15.4443 28.3133 14.0201 25.9314 13.5181V13.52ZM30.4555 32.6234C30.4501 32.6035 30.4437 32.5838 30.4362 32.5646C30.4304 32.5483 30.4261 32.532 30.4191 32.5162C30.4122 32.5003 30.4017 32.4848 30.3928 32.4693C30.3833 32.451 30.3727 32.4333 30.361 32.4163C30.361 32.4139 30.3587 32.4116 30.3572 32.4093C30.3463 32.3946 30.3332 32.3833 30.3212 32.3706C30.3091 32.3578 30.3014 32.3454 30.2898 32.3342L27.746 29.9294C27.6911 29.8774 27.6264 29.8367 27.5557 29.8098C27.485 29.7829 27.4097 29.7703 27.3341 29.7727C27.2585 29.775 27.1841 29.7924 27.1152 29.8237C27.0463 29.8549 26.9843 29.8996 26.9328 29.9549C26.8282 30.0671 26.7721 30.216 26.7769 30.3693C26.7817 30.5226 26.8469 30.6678 26.9583 30.7732L28.9898 32.6939C27.8962 33.437 26.9502 33.8417 26.2865 33.8417C25.9834 33.8435 25.6843 33.772 25.4148 33.6334C25.3993 33.6229 25.3833 33.6134 25.3668 33.6047C22.714 32.0687 20.383 30.0345 18.5021 27.6141L18.312 27.3674C16.4372 24.9293 15.0496 22.153 14.225 19.19C14.225 19.1834 14.2204 19.1733 14.2181 19.1664C14.1312 18.8844 14.1279 18.5832 14.2084 18.2993C14.5266 17.4939 14.9855 16.7515 15.5637 16.1068L17.0964 18.6033C17.1478 18.6872 17.2198 18.7565 17.3055 18.8046C17.3913 18.8526 17.488 18.8779 17.5863 18.8779C17.6931 18.8779 17.7978 18.8479 17.8884 18.7911C18.0182 18.7098 18.1108 18.5805 18.1457 18.4313C18.1807 18.2821 18.1553 18.1251 18.075 17.9946L16.1775 14.9032C16.1469 14.8551 16.1093 14.8118 16.066 14.7747C16.0586 14.7665 16.0532 14.7572 16.0451 14.7491C15.9913 14.6959 15.9275 14.654 15.8574 14.6256C15.7873 14.5972 15.7123 14.583 15.6367 14.5838C15.5611 14.5846 15.4864 14.6004 15.4169 14.6302C15.3474 14.66 15.2845 14.7033 15.2319 14.7576C14.3157 15.6462 13.5981 16.7188 13.1264 17.9047C12.962 18.4206 12.9579 18.9742 13.1144 19.4924C13.9817 22.6022 15.4378 25.5165 17.4039 28.0772L17.5941 28.3231C19.5303 30.8278 22.3606 33.2961 24.8099 34.6166C25.2599 34.8708 25.7689 35.0023 26.2857 34.998C27.3367 34.998 28.6669 34.3993 30.2391 33.2167C30.2567 33.2026 30.2734 33.1873 30.289 33.171C30.2971 33.1632 30.3064 33.1574 30.3142 33.1489L30.3177 33.1447C30.3355 33.1245 30.3518 33.103 30.3665 33.0804C30.373 33.0707 30.3812 33.0618 30.387 33.0521C30.3992 33.0305 30.4099 33.0081 30.4191 32.9851C30.4245 32.9731 30.4311 32.9619 30.4358 32.9495C30.4428 32.9275 30.4486 32.9051 30.4532 32.8825C30.4563 32.8689 30.4609 32.8554 30.4629 32.8418C30.466 32.8185 30.4675 32.7949 30.4675 32.7714C30.4675 32.7582 30.4699 32.7446 30.4675 32.7326C30.4661 32.7095 30.4631 32.6865 30.4586 32.6637C30.4595 32.6496 30.4585 32.6354 30.4555 32.6215V32.6234Z" fill="white"/>
</g>
</svg>
