<svg width="12" height="12" viewBox="0 0 12 12" fill="none" xmlns="http://www.w3.org/2000/svg">
<rect width="11" height="11" rx="5.5" fill="#22B4E1"/>
<path fill-rule="evenodd" clip-rule="evenodd" d="M6.08086 3.39463C6.32576 3.44079 6.55825 3.53128 6.76483 3.66085C6.9714 3.79042 7.14793 3.95648 7.28416 4.14938C7.42244 4.3421 7.51804 4.55803 7.56551 4.78481C7.61298 5.01158 7.61137 5.24475 7.56078 5.47095C7.55031 5.51868 7.56072 5.56827 7.58975 5.60897C7.61878 5.64967 7.66409 5.67818 7.71583 5.68832C7.72904 5.69087 7.7425 5.69215 7.756 5.69214C7.802 5.69195 7.84652 5.67712 7.882 5.65017C7.91749 5.62322 7.94175 5.58581 7.95068 5.54427C8.01176 5.27068 8.01364 4.98869 7.95621 4.71443C7.89877 4.44018 7.78314 4.17903 7.61595 3.94593C7.45112 3.71262 7.23755 3.51179 6.98765 3.3551C6.73775 3.19841 6.45651 3.089 6.16026 3.03321C6.10818 3.02352 6.05406 3.03327 6.00979 3.06031C5.96552 3.08734 5.93474 3.12946 5.92421 3.17738C5.91368 3.22531 5.92427 3.27512 5.95365 3.31587C5.98302 3.35661 6.02879 3.38494 6.08086 3.39463ZM5.76836 4.2705C6.03584 4.3224 6.27016 4.4696 6.42012 4.67995C6.57009 4.8903 6.62353 5.14671 6.56877 5.3932C6.55804 5.44093 6.56833 5.49062 6.59737 5.53137C6.62641 5.57213 6.67184 5.60061 6.72368 5.61057C6.73689 5.61311 6.75035 5.61439 6.76385 5.61439C6.80986 5.6142 6.85437 5.59937 6.88986 5.57242C6.92534 5.54547 6.9496 5.50805 6.95853 5.46652C7.03449 5.12457 6.96036 4.76885 6.75232 4.47702C6.54428 4.1852 6.21924 3.98099 5.84816 3.90897C5.79623 3.89962 5.74239 3.90954 5.69839 3.93657C5.65438 3.96361 5.62378 4.00556 5.61324 4.05328C5.60271 4.101 5.61311 4.15061 5.64216 4.19131C5.67122 4.232 5.71658 4.26047 5.76836 4.2705ZM7.25109 6.2676C7.19785 6.22385 7.13529 6.19078 7.0674 6.1705C6.99952 6.15022 6.92778 6.14317 6.85677 6.1498C6.77821 6.16187 6.70303 6.18815 6.63558 6.22713C6.56812 6.26611 6.50974 6.31702 6.4638 6.3769C6.40381 6.44664 6.30192 6.5637 6.26644 6.60227C6.02704 6.86252 5.86034 6.77565 5.74841 6.70997C5.43016 6.44579 5.14176 6.15267 4.88761 5.83508C4.88448 5.8308 4.88108 5.82668 4.87743 5.82276L4.87355 5.81783C4.87077 5.81449 4.86791 5.8112 4.86498 5.80797C4.59355 5.50046 4.35664 5.16844 4.15789 4.817C4.11625 4.70093 4.06537 4.53075 4.39689 4.37907C4.40238 4.37672 4.41108 4.3734 4.42246 4.36896C4.59614 4.30789 4.75636 4.21839 4.89537 4.10477C4.97922 4.03274 5.0355 3.93767 5.0558 3.83377C5.07609 3.72988 5.05932 3.62272 5.00798 3.52833C4.76067 3.08611 4.48114 2.65981 4.17128 2.25234C4.12983 2.1911 4.07536 2.1382 4.01113 2.09681C3.94691 2.05543 3.87426 2.02642 3.79755 2.01153C3.72084 1.99664 3.64165 1.99617 3.56474 2.01015C3.48783 2.02413 3.41478 2.05227 3.34998 2.09289L3.56943 2.40009C3.59185 2.38507 3.61762 2.37484 3.64488 2.37016C3.67213 2.36547 3.70018 2.36643 3.72698 2.37299C3.75377 2.37954 3.77864 2.39151 3.79978 2.40803C3.82091 2.42455 3.83777 2.4452 3.84913 2.46848C4.14527 2.85848 4.41289 3.26619 4.65021 3.68889C4.66623 3.71415 4.67143 3.744 4.66479 3.7726C4.65816 3.8012 4.64016 3.8265 4.61433 3.84353C4.51066 3.92227 4.39358 3.98472 4.26782 4.02837C4.25228 4.03435 4.23687 4.04064 4.22162 4.04722C3.92371 4.18363 3.60571 4.44967 3.78433 4.94282C3.7866 4.94922 3.78942 4.95514 3.79236 4.96167C4.00527 5.34405 4.26105 5.70488 4.55555 6.03828L4.56051 6.04407C4.56292 6.04727 4.56546 6.05035 4.568 6.05331C4.84396 6.39896 5.15859 6.71698 5.50673 7.00214C5.5126 7.0066 5.51877 7.01071 5.52521 7.01446C5.99892 7.29368 6.35454 7.07398 6.56957 6.84084C6.61362 6.79303 6.72944 6.65945 6.77536 6.60609L6.78072 6.59981C6.80964 6.55863 6.85378 6.52848 6.90497 6.51491C6.941 6.51535 6.97537 6.52891 7.00057 6.55261C7.37066 6.82632 7.721 7.1219 8.04936 7.43749C8.05458 7.4436 8.06016 7.44944 8.06609 7.45498C8.25649 7.63033 8.19718 7.7352 8.17763 7.76958C8.15314 7.81283 8.14822 7.86324 8.16395 7.90982C8.17967 7.9564 8.21477 7.99537 8.26158 8.01824C8.28993 8.03214 8.32157 8.03938 8.3537 8.03931C8.39008 8.03931 8.42576 8.03012 8.45686 8.01274C8.48795 7.99536 8.51326 7.97045 8.53003 7.94073C8.59417 7.82737 8.70409 7.5299 8.3553 7.20139C8.14402 6.95925 7.43265 6.40475 7.25109 6.2676ZM4.60603 6.08276C4.62038 6.09125 4.63586 6.098 4.65209 6.10285C4.63583 6.0978 4.62035 6.09084 4.60603 6.08215V6.08276ZM6.47116 2.16547C6.41915 2.15575 6.36508 2.16543 6.32084 2.1924C6.2766 2.21937 6.2458 2.26141 6.23524 2.30927C6.22468 2.35713 6.2352 2.4069 6.26451 2.44761C6.29381 2.48833 6.33949 2.51667 6.39149 2.52639C7.11147 2.66605 7.74213 3.06224 8.14574 3.62843C8.54934 4.19463 8.69308 4.8848 8.54557 5.54822C8.53487 5.59594 8.54517 5.64562 8.57421 5.68636C8.60325 5.72711 8.64866 5.7556 8.70048 5.76558C8.71369 5.76812 8.72715 5.7694 8.74065 5.7694C8.78665 5.76921 8.83117 5.75438 8.86665 5.72743C8.90214 5.70048 8.9264 5.66307 8.93533 5.62153C9.10404 4.86264 8.93959 4.07314 8.47788 3.42547C8.01618 2.7778 7.29475 2.3246 6.47116 2.16485V2.16547ZM8.03543 8.24436C8.03356 8.23801 8.03133 8.23176 8.02874 8.22563C8.02673 8.22045 8.02526 8.21528 8.02285 8.21022C8.02044 8.20517 8.01682 8.20024 8.01374 8.19531C8.01045 8.18949 8.00678 8.18385 8.00276 8.17843C8.00276 8.17769 8.00196 8.17695 8.00142 8.17622C7.99767 8.17153 7.99312 8.16796 7.98897 8.16389C7.98482 8.15983 7.98214 8.15588 7.97813 8.15231L7.09858 7.38709C7.0796 7.37053 7.05724 7.3576 7.03279 7.34904C7.00834 7.34048 6.9823 7.33646 6.95615 7.33722C6.93001 7.33798 6.90429 7.34349 6.88048 7.35345C6.85666 7.3634 6.83523 7.3776 6.81741 7.39522C6.78123 7.4309 6.76186 7.47831 6.76352 7.52708C6.76517 7.57586 6.78772 7.62206 6.82624 7.65559L7.52865 8.26678C7.15053 8.50325 6.82343 8.63202 6.59394 8.63202C6.48914 8.63259 6.38574 8.60985 6.29255 8.56573C6.2872 8.56241 6.28166 8.55936 6.27594 8.55661C5.35872 8.06784 4.55277 7.42055 3.90242 6.65033L3.83668 6.57184C3.18844 5.79603 2.70867 4.91256 2.42357 3.96971C2.42357 3.96762 2.42197 3.96442 2.42116 3.9622C2.39114 3.87246 2.38998 3.77664 2.41782 3.6863C2.52783 3.43 2.68651 3.19375 2.88644 2.9886L3.41639 3.78303C3.43413 3.80972 3.45903 3.83177 3.48868 3.84707C3.51834 3.86236 3.55177 3.8704 3.58576 3.8704C3.6227 3.87041 3.6589 3.86084 3.6902 3.84279C3.73511 3.81692 3.7671 3.77577 3.77918 3.72829C3.79127 3.68081 3.78249 3.63086 3.75474 3.58932L3.09866 2.60562C3.08807 2.59031 3.07508 2.57652 3.0601 2.56471C3.05756 2.56213 3.05568 2.55917 3.05287 2.55658C3.03428 2.53966 3.01222 2.52631 2.98799 2.51728C2.96375 2.50825 2.93781 2.50373 2.91167 2.50398C2.88552 2.50424 2.85969 2.50925 2.83567 2.51875C2.81164 2.52824 2.7899 2.54202 2.77169 2.55929C2.45491 2.84204 2.2068 3.18335 2.04372 3.56073C1.98688 3.72488 1.98543 3.90103 2.03957 4.06595C2.33942 5.0555 2.84291 5.98287 3.5227 6.79771L3.58844 6.87595C4.25791 7.67297 5.23653 8.4584 6.08341 8.87859C6.23901 8.95949 6.41497 9.00134 6.59367 8.99997C6.95706 8.99997 7.41698 8.80946 7.96059 8.43314C7.96669 8.42865 7.97246 8.42379 7.97786 8.4186C7.98067 8.41613 7.98388 8.41428 7.98656 8.41157L7.98777 8.41022C7.99393 8.40379 7.99956 8.39695 8.00464 8.38976C8.00691 8.38668 8.00972 8.38385 8.01173 8.38077C8.01595 8.3739 8.01966 8.36677 8.02285 8.35945C8.02472 8.35563 8.027 8.35206 8.0286 8.34811C8.03102 8.34111 8.03303 8.33399 8.03463 8.3268C8.0357 8.32248 8.03731 8.31817 8.03798 8.31386C8.03905 8.30642 8.03959 8.29893 8.03958 8.29143C8.03958 8.28724 8.04039 8.28293 8.03958 8.27911C8.03909 8.27174 8.03806 8.26441 8.0365 8.25717C8.03682 8.25267 8.03646 8.24815 8.03543 8.24374V8.24436Z" fill="white"/>
</svg>
